<?xml version="1.0" encoding="utf-8"?>
<svg xmlns="http://www.w3.org/2000/svg" viewBox="0 0 600 250" xmlns:bx="https://boxy-svg.com" width="600px" height="250px"><defs><bx:export><bx:file format="svg" path="Sem título.svg" excluded="true"/><bx:file format="svg" path="Sem título 2.svg"/></bx:export></defs><g style=""><g id="lS_n"><rect x="128.057" y="87.019" width="56.813" height="42.269" transform="matrix(-0.258819, 0.965926, -0.96292, -0.270036, -95.314053, -47.294285)" style="fill: rgb(255, 255, 255); stroke: rgb(0, 0, 0); stroke-width: 3px; stroke-linejoin: round; transform-box: fill-box; transform-origin: 50% 50%;"/><text style="font-size: 38px; transform-box: fill-box; transform-origin: 4.60938% 4.53792%; white-space: pre;" transform="matrix(0.965926, 0.258819, -0.258819, 0.965926, -9.993233, 13.324319)"><tspan x="63.794" y="59.861">S</tspan><tspan x="63.794" dy="1em">​</tspan></text></g><g transform="matrix(1, 0, 0, 1, 48.51284, 13.390061)" style="" id="lp_n"><rect x="128.057" y="87.019" width="56.813" height="42.269" transform="matrix(-0.258819, 0.965926, -0.96292, -0.270036, -95.314053, -47.294285)" style="fill: rgb(255, 255, 255); stroke: rgb(0, 0, 0); stroke-width: 3px; stroke-linejoin: round; transform-box: fill-box; transform-origin: 50% 50%;"/><text style="font-size: 38px; transform-box: fill-box; transform-origin: 4.60938% 4.53792%; white-space: pre;" transform="matrix(0.965926, 0.258819, -0.258819, 0.965926, -9.993233, 13.324319)"><tspan x="63.794" y="59.861">P</tspan><tspan x="63.79399871826172" dy="1em">​</tspan></text></g><g transform="matrix(1, 0, 0, 1, 96.804237, 26.332396)" style="" id="lt_n"><rect x="128.057" y="87.019" width="56.813" height="42.269" transform="matrix(-0.258819, 0.965926, -0.96292, -0.270036, -95.314053, -47.294285)" style="fill: rgb(255, 255, 255); stroke: rgb(0, 0, 0); stroke-width: 3px; stroke-linejoin: round; transform-box: fill-box; transform-origin: 50% 50%;"/><text style="font-size: 38px; white-space: pre; transform-box: fill-box; transform-origin: 4.60938% 4.53792%;" transform="matrix(0.965926, 0.258819, -0.258819, 0.965926, -9.224411, 13.068042)" y="59.861" x="63.794">T</text></g><g transform="matrix(1, 0, 0, 1, 145.193253, 39.110447)" style="" id="star_n"><rect x="128.057" y="87.019" width="56.813" height="42.269" transform="matrix(-0.258819, 0.965926, -0.96292, -0.270036, -95.314053, -47.294285)" style="fill: rgb(255, 255, 255); stroke: rgb(0, 0, 0); stroke-width: 3px; stroke-linejoin: round; transform-box: fill-box; transform-origin: 50% 50%;"/><text style="font-size: 48px; white-space: pre; transform-box: fill-box; transform-origin: 3.64842% 3.58069%;" transform="matrix(0.965926, 0.258819, -0.258819, 0.965926, -8.107977, 27.359217)" x="63.794" y="59.861">*</text></g><g transform="matrix(1, 0, 0, 1, 193.58226, 51.67902)" style="" id="lN_n"><rect x="128.057" y="87.019" width="56.813" height="42.269" transform="matrix(-0.258819, 0.965926, -0.96292, -0.270036, -95.314053, -47.294285)" style="fill: rgb(255, 255, 255); stroke: rgb(0, 0, 0); stroke-width: 3px; stroke-linejoin: round; transform-box: fill-box; transform-origin: 50% 50%;"/><text style="font-size: 38px; white-space: pre; transform-box: fill-box; transform-origin: 4.60938% 4.53792%;" transform="matrix(0.965926, 0.258819, -0.258819, 0.965926, -11.274604, 13.068042)" y="59.861" x="63.794">N</text></g><g transform="matrix(1, 0, 0, 1, -16.730959, 62.839108)" style="" id="lk_n"><rect x="128.057" y="87.019" width="56.813" height="42.269" transform="matrix(-0.258819, 0.965926, -0.96292, -0.270036, -95.314053, -47.294285)" style="fill: rgb(255, 255, 255); stroke: rgb(0, 0, 0); stroke-width: 3px; stroke-linejoin: round; transform-box: fill-box; transform-origin: 50% 50%;"/><text style="font-size: 38px; transform-box: fill-box; transform-origin: 4.60938% 4.53792%; white-space: pre;" transform="matrix(0.965926, 0.258819, -0.258819, 0.965926, -9.993233, 13.324319)"><tspan x="63.794" y="59.861">K</tspan><tspan x="63.79399871826172" dy="1em">​</tspan></text></g><g transform="matrix(1, 0, 0, 1, 31.454321, 75.796806)" style="" id="lm_n"><rect x="128.057" y="87.019" width="56.813" height="42.269" transform="matrix(-0.258819, 0.965926, -0.96292, -0.270036, -95.314053, -47.294285)" style="fill: rgb(255, 255, 255); stroke: rgb(0, 0, 0); stroke-width: 3px; stroke-linejoin: round; transform-box: fill-box; transform-origin: 50% 50%;"/><text style="font-size: 38px; transform-box: fill-box; transform-origin: 4.60938% 4.53792%; white-space: pre;" transform="matrix(0.965926, 0.258819, -0.258819, 0.965926, -13.269154, 12.914829)"><tspan x="63.794" y="59.861">M</tspan><tspan x="63.79399871826172" dy="1em">​</tspan></text></g><g transform="matrix(1, 0, 0, 1, 79.555672, 88.5886)" style="" id="lf_n"><rect x="128.057" y="87.019" width="56.813" height="42.269" transform="matrix(-0.258819, 0.965926, -0.96292, -0.270036, -95.314053, -47.294285)" style="fill: rgb(255, 255, 255); stroke: rgb(0, 0, 0); stroke-width: 3px; stroke-linejoin: round; transform-box: fill-box; transform-origin: 50% 50%;"/><text style="font-size: 38px; transform-box: fill-box; transform-origin: 4.60938% 4.53792%; white-space: pre;" transform="matrix(0.965926, 0.258819, -0.258819, 0.965926, -9.993233, 13.324319)"><tspan x="63.794" y="59.861">F</tspan><tspan x="63.79399871826172" dy="1em">​</tspan></text></g><g transform="matrix(1, 0, 0, 1, 128.397049, 101.486099)" style="" id="lr_n"><rect x="128.057" y="87.019" width="56.813" height="42.269" transform="matrix(-0.258819, 0.965926, -0.96292, -0.270036, -95.314053, -47.294285)" style="fill: rgb(255, 255, 255); stroke: rgb(0, 0, 0); stroke-width: 3px; stroke-linejoin: round; transform-box: fill-box; transform-origin: 50% 50%;"/><text style="font-size: 38px; transform-box: fill-box; transform-origin: 4.60938% 4.53792%; white-space: pre;" transform="matrix(0.965926, 0.258819, -0.258819, 0.965926, -11.494697, 13.460815)"><tspan x="63.794" y="59.861">R</tspan><tspan x="63.79399871826172" dy="1em">​</tspan></text></g><g transform="matrix(1, 0, 0, 1, 176.392685, 114.70076)" style="" id="lL_n"><rect x="128.057" y="87.019" width="56.813" height="42.269" transform="matrix(-0.258819, 0.965926, -0.96292, -0.270036, -95.314053, -47.294285)" style="fill: rgb(255, 255, 255); stroke: rgb(0, 0, 0); stroke-width: 3px; stroke-linejoin: round; transform-box: fill-box; transform-origin: 50% 50%;"/><text style="font-size: 38px; transform-box: fill-box; transform-origin: 4.60938% 4.53792%; white-space: pre;" transform="matrix(0.965926, 0.258819, -0.258819, 0.965926, -9.993233, 13.324319)"><tspan x="63.794" y="59.861">L</tspan><tspan x="63.79399871826172" dy="1em">​</tspan></text></g><g transform="matrix(0.866026, -0.499999, 0.499999, 0.866026, 284.117218, 51.854156)" style="transform-origin: 61.1494px 60.8592px;" id="lo_n"><rect x="128.057" y="87.019" width="56.813" height="42.269" transform="matrix(-0.258819, 0.965926, -0.96292, -0.270036, -95.314053, -47.294285)" style="fill: rgb(255, 255, 255); stroke: rgb(0, 0, 0); stroke-width: 3px; stroke-linejoin: round; transform-box: fill-box; transform-origin: 50% 50%;"/><text style="font-size: 38px; transform-box: fill-box; transform-origin: 4.60938% 4.53792%; white-space: pre;" transform="matrix(0.965926, 0.258819, -0.258819, 0.965926, -12.605783, 12.789703)"><tspan x="63.794" y="59.861">O</tspan><tspan x="63.79399871826172" dy="1em">​</tspan></text></g><g transform="matrix(0.866026, -0.499999, 0.499999, 0.866026, 397.499847, 89.170158)" style="transform-origin: 61.149px 60.859px;" id="ll_n"><rect x="128.057" y="87.019" width="56.813" height="42.269" transform="matrix(-0.258819, 0.965926, -0.96292, -0.270036, -95.314053, -47.294285)" style="fill: rgb(255, 255, 255); stroke: rgb(0, 0, 0); stroke-width: 3px; stroke-linejoin: round; transform-box: fill-box; transform-origin: 50% 50%;"/><text style="font-size: 38px; transform-box: fill-box; transform-origin: 4.60938% 4.53792%; white-space: pre;" transform="matrix(0.965926, 0.258819, -0.258819, 0.965926, -11.784665, 12.605264)"><tspan x="63.794" y="59.861">L</tspan><tspan x="63.79399871826172" dy="1em">​</tspan></text><text style="font-size: 38px; transform-box: fill-box; transform-origin: 1.24689px 1.82877px; white-space: pre;" transform="matrix(0.965926, 0.258818, -0.258818, 0.965926, -84.390305, -12.524722)"><tspan x="136.326" y="85.038">R</tspan><tspan x="136.326" dy="1em">​</tspan></text></g><g transform="matrix(0.866026, -0.499999, 0.499999, 0.866026, 380.556427, 25.665096)" style="transform-origin: 61.149px 60.859px;" id="li_n"><rect x="128.057" y="87.019" width="56.813" height="42.269" transform="matrix(-0.258819, 0.965926, -0.96292, -0.270036, -95.314053, -47.294285)" style="fill: rgb(255, 255, 255); stroke: rgb(0, 0, 0); stroke-width: 3px; stroke-linejoin: round; transform-box: fill-box; transform-origin: 50% 50%;"/><text style="font-size: 38px; white-space: pre; transform-box: fill-box; transform-origin: 4.60938% 4.53792%;" transform="matrix(0.965926, 0.258819, -0.258819, 0.965926, -3.033729, 14.794009)" x="63.794" y="59.861">I</text></g><g transform="matrix(0.866026, -0.499999, 0.499999, 0.866026, 349.256409, 101.328445)" style="transform-origin: 61.149px 60.859px;" id="lu_n"><rect x="128.057" y="87.019" width="56.813" height="42.269" transform="matrix(-0.258819, 0.965926, -0.96292, -0.270036, -95.314053, -47.294285)" style="fill: rgb(255, 255, 255); stroke: rgb(0, 0, 0); stroke-width: 3px; stroke-linejoin: round; transform-box: fill-box; transform-origin: 50% 50%;"/><text style="font-size: 38px; transform-box: fill-box; transform-origin: 4.60938% 4.53792%; white-space: pre;" transform="matrix(0.965926, 0.258819, -0.258819, 0.965926, -11.431904, 13.497652)"><tspan x="63.794" y="59.861">U</tspan><tspan x="63.79399871826172" dy="1em">​</tspan></text></g><g transform="matrix(0.866026, -0.499999, 0.499999, 0.866026, 300.634308, 114.35965)" style="transform-origin: 61.149px 60.859px;" id="le_n"><rect x="128.057" y="87.019" width="56.813" height="42.269" transform="matrix(-0.258819, 0.965926, -0.96292, -0.270036, -95.314053, -47.294285)" style="fill: rgb(255, 255, 255); stroke: rgb(0, 0, 0); stroke-width: 3px; stroke-linejoin: round; transform-box: fill-box; transform-origin: 50% 50%;"/><text style="font-size: 38px; transform-box: fill-box; transform-origin: 4.60938% 4.53792%; white-space: pre;" transform="matrix(0.965926, 0.258819, -0.258819, 0.965926, -9.993233, 13.324319)"><tspan x="63.794" y="59.861">E</tspan><tspan x="63.79399871826172" dy="1em">​</tspan></text></g><g transform="matrix(0.866026, -0.499999, 0.499999, 0.866026, 332.080322, 39.192612)" style="transform-origin: 61.1494px 60.8592px;" id="la_n"><rect x="128.057" y="87.019" width="56.813" height="42.269" transform="matrix(-0.258819, 0.965926, -0.96292, -0.270036, -95.314053, -47.294285)" style="fill: rgb(255, 255, 255); stroke: rgb(0, 0, 0); stroke-width: 3px; stroke-linejoin: round; transform-box: fill-box; transform-origin: 50% 50%;"/><text style="font-size: 38px; transform-box: fill-box; transform-origin: 4.60938% 4.53792%; white-space: pre;" transform="matrix(0.965926, 0.258819, -0.258819, 0.965926, -10.021477, 13.794881)"><tspan x="63.794" y="59.861">A</tspan><tspan x="63.79399871826172" dy="1em">​</tspan></text></g><g transform="matrix(0.866026, -0.499999, 0.499999, 0.866026, 429.258972, 13.206501)" style="transform-origin: 61.149px 60.859px;" id="ln_n"><rect x="128.057" y="87.019" width="56.813" height="42.269" transform="matrix(-0.258819, 0.965926, -0.96292, -0.270036, -95.314053, -47.294285)" style="fill: rgb(255, 255, 255); stroke: rgb(0, 0, 0); stroke-width: 3px; stroke-linejoin: round; transform-box: fill-box; transform-origin: 50% 50%;"/><text style="font-size: 38px; white-space: pre; transform-box: fill-box; transform-origin: 4.60938% 4.53792%;" transform="matrix(0.965926, 0.258819, -0.258819, 0.965926, -11.365547, 12.99549)" x="63.794" y="59.861">И</text></g><g transform="matrix(0.866026, -0.499999, 0.499999, 0.866026, 445.763123, 75.874374)" style="transform-origin: 61.149px 60.859px;" id="ls_n"><rect x="128.057" y="87.019" width="56.813" height="42.269" transform="matrix(-0.258819, 0.965926, -0.96292, -0.270036, -95.314053, -47.294285)" style="fill: rgb(255, 255, 255); stroke: rgb(0, 0, 0); stroke-width: 3px; stroke-linejoin: round; transform-box: fill-box; transform-origin: 50% 50%;"/><text style="font-size: 38px; white-space: pre; transform-box: fill-box; transform-origin: 4.60938% 4.53792%;" transform="matrix(0.965926, 0.258819, -0.258819, 0.965926, -10.324445, 13.070465)" x="63.794" y="59.861">S</text><text style="font-size: 38px; transform-box: fill-box; transform-origin: 50% 50%; white-space: pre;" transform="matrix(-0.642787, 0.766045, -0.766045, -0.642787, -138.820511, -45.547596)" x="196.136" y="122.346">-</text></g><g transform="matrix(0.866026, -0.499999, 0.499999, 0.866026, 477.774597, 0.403286)" style="transform-origin: 61.149px 60.859px;" id="ld_n"><rect x="128.057" y="87.019" width="56.813" height="42.269" transform="matrix(-0.258819, 0.965926, -0.96292, -0.270036, -95.314053, -47.294285)" style="fill: rgb(255, 255, 255); stroke: rgb(0, 0, 0); stroke-width: 3px; stroke-linejoin: round; transform-box: fill-box; transform-origin: 50% 50%;"/><text style="font-size: 38px; transform-box: fill-box; transform-origin: 4.60938% 4.53792%; white-space: pre;" transform="matrix(0.965926, 0.258819, -0.258819, 0.965926, -11.538404, 12.08436)"><tspan x="63.794" y="59.861">D</tspan><tspan x="63.79399871826172" dy="1em">​</tspan></text></g><g transform="matrix(0.866026, -0.499999, 0.499999, 0.866026, 494.379791, 63.482151)" style="transform-origin: 61.149px 60.859px;" id="lc_n"><rect x="128.057" y="87.019" width="56.813" height="42.269" transform="matrix(-0.258819, 0.965926, -0.96292, -0.270036, -95.314053, -47.294285)" style="fill: rgb(255, 255, 255); stroke: rgb(0, 0, 0); stroke-width: 3px; stroke-linejoin: round; transform-box: fill-box; transform-origin: 50% 50%;"/><text style="font-size: 38px; transform-box: fill-box; transform-origin: 4.60938% 4.53792%; white-space: pre;" transform="matrix(0.844636, 0.22632, -0.258819, 0.965926, -9.981152, 12.684691)" y="59.861000061035156" x="63.79399871826172">I<tspan x="63.79399871826172" dy="1em">​</tspan></text><text style="font-size: 38px; white-space: pre; transform-origin: 64.2807px 27.3126px;" transform="matrix(1.748853, 0.468605, -0.258819, 0.965926, -3.481182, -1.833487)" y="59.861000061035156" x="63.79399871826172">-</text><text style="font-size: 38px; white-space: pre; transform-origin: 64.2807px 27.3126px;" transform="matrix(1.748853, 0.468605, -0.258819, 0.965926, -10.719716, 20.939919)" y="59.861000061035156" x="63.79399871826172">-</text></g><g id="ly_n"><path style="stroke: rgb(0, 0, 0); fill-rule: evenodd; fill: rgb(255, 255, 255); stroke-width: 3px; stroke-linejoin: round; stroke-linecap: round;" d="M 259.238 210.154 L 300.357 222.288 L 341.307 210.407 L 309.876 93.426 L 290.175 93.323 L 259.238 210.154 Z"/><text style="font-size: 45px; white-space: pre;" x="288.77" y="189.323">y</text></g></g><g style=""><g id="lS"><rect x="128.057" y="87.019" width="56.813" height="42.269" transform="matrix(-0.258819, 0.965926, -0.96292, -0.270036, -95.314053, -47.294285)" style="stroke-width: 3px; stroke-linejoin: round; transform-box: fill-box; transform-origin: 50% 50%; fill: rgb(233, 217, 242); stroke: rgb(113, 9, 170);"/><text style="fill: rgb(113, 9, 170); font-size: 38px; white-space: pre; transform-box: fill-box; transform-origin: 1.16839px 1.92054px;" transform="matrix(0.965926, 0.258819, -0.258819, 0.965926, -9.993233, 13.324319)"><tspan x="63.794" y="59.861">S</tspan><tspan x="63.794" dy="1em">​</tspan></text></g><g transform="matrix(1, 0, 0, 1, 48.51284, 13.390061)" style="" id="lp"><rect x="128.057" y="87.019" width="56.813" height="42.269" transform="matrix(-0.258819, 0.965926, -0.96292, -0.270036, -95.314053, -47.294285)" style="stroke-width: 3px; stroke-linejoin: round; transform-box: fill-box; transform-origin: 50% 50%; fill: rgb(233, 217, 242); stroke: rgb(113, 9, 170);"/><text style="fill: rgb(113, 9, 170); font-size: 38px; white-space: pre; transform-box: fill-box; transform-origin: 1.16826px 1.92695px;" transform="matrix(0.965926, 0.258819, -0.258819, 0.965926, -9.993233, 13.324319)"><tspan x="63.794" y="59.861">P</tspan><tspan x="63.794" dy="1em">​</tspan></text></g><g transform="matrix(1, 0, 0, 1, 96.804237, 26.332396)" style="" id="lt"><rect x="128.057" y="87.019" width="56.813" height="42.269" transform="matrix(-0.258819, 0.965926, -0.96292, -0.270036, -95.314053, -47.294285)" style="stroke-width: 3px; stroke-linejoin: round; transform-box: fill-box; transform-origin: 50% 50%; fill: rgb(233, 217, 242); stroke: rgb(113, 9, 170);"/><text style="fill: rgb(113, 9, 170); font-size: 38px; white-space: pre; transform-box: fill-box; transform-origin: 1.06999px 1.92695px;" transform="matrix(0.965926, 0.258819, -0.258819, 0.965926, -9.224411, 13.068042)" x="63.794" y="59.861">T</text></g><g transform="matrix(1, 0, 0, 1, 145.193253, 39.110447)" style="" id="star"><rect x="128.057" y="87.019" width="56.813" height="42.269" transform="matrix(-0.258819, 0.965926, -0.96292, -0.270036, -95.314053, -47.294285)" style="stroke-width: 3px; stroke-linejoin: round; transform-box: fill-box; transform-origin: 50% 50%; fill: rgb(233, 217, 242); stroke: rgb(113, 9, 170);"/><text style="fill: rgb(113, 9, 170); font-size: 48px; white-space: pre; transform-box: fill-box; transform-origin: 0.681505px 1.91581px;" transform="matrix(0.965926, 0.258819, -0.258819, 0.965926, -8.107977, 27.359217)" x="63.794" y="59.861">*</text></g><g transform="matrix(1, 0, 0, 1, 193.58226, 51.67902)" style="" id="lN"><rect x="128.057" y="87.019" width="56.813" height="42.269" transform="matrix(-0.258819, 0.965926, -0.96292, -0.270036, -95.314053, -47.294285)" style="stroke-width: 3px; stroke-linejoin: round; transform-box: fill-box; transform-origin: 50% 50%; fill: rgb(233, 217, 242); stroke: rgb(113, 9, 170);"/><text style="fill: rgb(113, 9, 170); font-size: 38px; white-space: pre; transform-box: fill-box; transform-origin: 1.2649px 1.92695px;" transform="matrix(0.965926, 0.258819, -0.258819, 0.965926, -11.274604, 13.068042)" x="63.794" y="59.861">N</text></g><g transform="matrix(1, 0, 0, 1, -16.730959, 62.839108)" style="" id="lk"><rect x="128.057" y="87.019" width="56.813" height="42.269" transform="matrix(-0.258819, 0.965926, -0.96292, -0.270036, -95.314053, -47.294285)" style="stroke-width: 3px; stroke-linejoin: round; transform-box: fill-box; transform-origin: 50% 50%; fill: rgb(233, 217, 242); stroke: rgb(113, 9, 170);"/><text style="fill: rgb(113, 9, 170); font-size: 38px; white-space: pre; transform-box: fill-box; transform-origin: 1.17438px 1.92695px;" transform="matrix(0.965926, 0.258819, -0.258819, 0.965926, -9.993233, 13.324319)"><tspan x="63.794" y="59.861">K</tspan><tspan x="63.794" dy="1em">​</tspan></text></g><g transform="matrix(1, 0, 0, 1, 31.454321, 75.796806)" style="" id="lm"><rect x="128.057" y="87.019" width="56.813" height="42.269" transform="matrix(-0.258819, 0.965926, -0.96292, -0.270036, -95.314053, -47.294285)" style="stroke-width: 3px; stroke-linejoin: round; transform-box: fill-box; transform-origin: 50% 50%; fill: rgb(233, 217, 242); stroke: rgb(113, 9, 170);"/><text style="fill: rgb(113, 9, 170); font-size: 38px; white-space: pre; transform-box: fill-box; transform-origin: 1.45921px 1.92695px;" transform="matrix(0.965926, 0.258819, -0.258819, 0.965926, -13.269154, 12.914829)"><tspan x="63.794" y="59.861">M</tspan><tspan x="63.794" dy="1em">​</tspan></text></g><g transform="matrix(1, 0, 0, 1, 79.555672, 88.5886)" style="" id="lf"><rect x="128.057" y="87.019" width="56.813" height="42.269" transform="matrix(-0.258819, 0.965926, -0.96292, -0.270036, -95.314053, -47.294285)" style="stroke-width: 3px; stroke-linejoin: round; transform-box: fill-box; transform-origin: 50% 50%; fill: rgb(233, 217, 242); stroke: rgb(113, 9, 170);"/><text style="fill: rgb(113, 9, 170); font-size: 38px; white-space: pre; transform-box: fill-box; transform-origin: 1.06999px 1.92695px;" transform="matrix(0.965926, 0.258819, -0.258819, 0.965926, -9.993233, 13.324319)"><tspan x="63.794" y="59.861">F</tspan><tspan x="63.794" dy="1em">​</tspan></text></g><g transform="matrix(1, 0, 0, 1, 128.397049, 101.486099)" style="" id="lr"><rect x="128.057" y="87.019" width="56.813" height="42.269" transform="matrix(-0.258819, 0.965926, -0.96292, -0.270036, -95.314053, -47.294285)" style="stroke-width: 3px; stroke-linejoin: round; transform-box: fill-box; transform-origin: 50% 50%; fill: rgb(233, 217, 242); stroke: rgb(113, 9, 170);"/><text style="fill: rgb(113, 9, 170); font-size: 38px; white-space: pre; transform-box: fill-box; transform-origin: 1.2649px 1.92695px;" transform="matrix(0.965926, 0.258819, -0.258819, 0.965926, -11.494697, 13.460815)"><tspan x="63.794" y="59.861">R</tspan><tspan x="63.794" dy="1em">​</tspan></text></g><g transform="matrix(1, 0, 0, 1, 176.392685, 114.70076)" style="" id="lL"><rect x="128.057" y="87.019" width="56.813" height="42.269" transform="matrix(-0.258819, 0.965926, -0.96292, -0.270036, -95.314053, -47.294285)" style="stroke-width: 3px; stroke-linejoin: round; transform-box: fill-box; transform-origin: 50% 50%; fill: rgb(233, 217, 242); stroke: rgb(113, 9, 170);"/><text style="fill: rgb(113, 9, 170); font-size: 38px; white-space: pre; transform-box: fill-box; transform-origin: 0.974164px 1.92695px;" transform="matrix(0.965926, 0.258819, -0.258819, 0.965926, -9.993233, 13.324319)"><tspan x="63.794" y="59.861">L</tspan><tspan x="63.794" dy="1em">​</tspan></text></g><g transform="matrix(0.866026, -0.499999, 0.499999, 0.866026, 284.117218, 51.854156)" style="transform-origin: 61.1494px 60.8592px;" id="lo"><rect x="128.057" y="87.019" width="56.813" height="42.269" transform="matrix(-0.258819, 0.965926, -0.96292, -0.270036, -95.314053, -47.294285)" style="stroke-width: 3px; stroke-linejoin: round; transform-box: fill-box; transform-origin: 50% 50%; fill: rgb(213, 255, 213); stroke: rgb(0, 212, 0);"/><text style="fill: rgb(0, 212, 0); font-size: 38px; white-space: pre; transform-box: fill-box; transform-origin: 1.36248px 1.9269px;" transform="matrix(0.965926, 0.258819, -0.258819, 0.965926, -12.605783, 12.789703)"><tspan x="63.794" y="59.861">O</tspan><tspan x="63.794" dy="1em">​</tspan></text></g><g transform="matrix(0.866026, -0.499999, 0.499999, 0.866026, 397.499847, 89.170158)" style="transform-origin: 61.149px 60.859px;" id="ll"><rect x="128.057" y="87.019" width="56.813" height="42.269" transform="matrix(-0.258819, 0.965926, -0.96292, -0.270036, -95.314053, -47.294285)" style="stroke-width: 3px; stroke-linejoin: round; transform-box: fill-box; transform-origin: 50% 50%; fill: rgb(170, 238, 255); stroke: rgb(0, 170, 212);"/><text style="fill: rgb(0, 170, 212); font-size: 38px; white-space: pre; transform-box: fill-box; transform-origin: 0.974323px 1.92386px;" transform="matrix(0.965926, 0.258819, -0.258819, 0.965926, -11.784665, 12.605264)"><tspan x="63.794" y="59.861">L</tspan><tspan x="63.794" dy="1em">​</tspan></text><text style="fill: rgb(0, 170, 212); font-size: 38px; white-space: pre; transform-box: fill-box; transform-origin: 1.24689px 1.82877px;" transform="matrix(0.965926, 0.258818, -0.258818, 0.965926, -84.390305, -12.524722)"><tspan x="136.326" y="85.038">R</tspan><tspan x="136.326" dy="1em">​</tspan></text></g><g transform="matrix(0.866026, -0.499999, 0.499999, 0.866026, 380.556427, 25.665096)" style="transform-origin: 61.149px 60.859px;" id="li"><rect x="128.057" y="87.019" width="56.813" height="42.269" transform="matrix(-0.258819, 0.965926, -0.96292, -0.270036, -95.314053, -47.294285)" style="stroke-width: 3px; stroke-linejoin: round; transform-box: fill-box; transform-origin: 50% 50%; fill: rgb(213, 255, 213); stroke: rgb(0, 212, 0);"/><text style="fill: rgb(0, 212, 0); font-size: 38px; white-space: pre; transform-box: fill-box; transform-origin: 0.486703px 1.92386px;" transform="matrix(0.965926, 0.258819, -0.258819, 0.965926, -3.033729, 14.794009)" x="63.794" y="59.861">I</text></g><g transform="matrix(0.866026, -0.499999, 0.499999, 0.866026, 349.256409, 101.328445)" style="transform-origin: 61.149px 60.859px;" id="lu"><rect x="128.057" y="87.019" width="56.813" height="42.269" transform="matrix(-0.258819, 0.965926, -0.96292, -0.270036, -95.314053, -47.294285)" style="stroke-width: 3px; stroke-linejoin: round; transform-box: fill-box; transform-origin: 50% 50%; fill: rgb(213, 255, 213); stroke: rgb(0, 212, 0);"/><text style="fill: rgb(0, 212, 0); font-size: 38px; white-space: pre; transform-box: fill-box; transform-origin: 1.26497px 1.92386px;" transform="matrix(0.965926, 0.258819, -0.258819, 0.965926, -11.431904, 13.497652)"><tspan x="63.794" y="59.861">U</tspan><tspan x="63.794" dy="1em">​</tspan></text></g><g transform="matrix(0.866026, -0.499999, 0.499999, 0.866026, 300.634308, 114.35965)" style="transform-origin: 61.149px 60.859px;" id="le"><rect x="128.057" y="87.019" width="56.813" height="42.269" transform="matrix(-0.258819, 0.965926, -0.96292, -0.270036, -95.314053, -47.294285)" style="stroke-width: 3px; stroke-linejoin: round; transform-box: fill-box; transform-origin: 50% 50%; fill: rgb(213, 255, 213); stroke: rgb(0, 212, 0);"/><text style="fill: rgb(0, 212, 0); font-size: 38px; white-space: pre; transform-box: fill-box; transform-origin: 1.16832px 1.92386px;" transform="matrix(0.965926, 0.258819, -0.258819, 0.965926, -9.993233, 13.324319)"><tspan x="63.794" y="59.861">E</tspan><tspan x="63.794" dy="1em">​</tspan></text></g><g transform="matrix(0.866026, -0.499999, 0.499999, 0.866026, 332.080322, 39.192612)" style="transform-origin: 61.1494px 60.8592px;" id="la"><rect x="128.057" y="87.019" width="56.813" height="42.269" transform="matrix(-0.258819, 0.965926, -0.96292, -0.270036, -95.314053, -47.294285)" style="stroke-width: 3px; stroke-linejoin: round; transform-box: fill-box; transform-origin: 50% 50%; fill: rgb(213, 255, 213); stroke: rgb(0, 212, 0);"/><text style="fill: rgb(0, 212, 0); font-size: 38px; white-space: pre; transform-box: fill-box; transform-origin: 1.19013px 1.92386px;" transform="matrix(0.965926, 0.258819, -0.258819, 0.965926, -10.021477, 13.794881)"><tspan x="63.794" y="59.861">A</tspan><tspan x="63.794" dy="1em">​</tspan></text></g><g transform="matrix(0.866026, -0.499999, 0.499999, 0.866026, 429.258972, 13.206501)" style="transform-origin: 61.149px 60.859px;" id="ln"><rect x="128.057" y="87.019" width="56.813" height="42.269" transform="matrix(-0.258819, 0.965926, -0.96292, -0.270036, -95.314053, -47.294285)" style="stroke-width: 3px; stroke-linejoin: round; transform-box: fill-box; transform-origin: 50% 50%; fill: rgb(170, 238, 255); stroke: rgb(0, 170, 212);"/><text style="fill: rgb(0, 170, 212); font-size: 38px; white-space: pre; transform-box: fill-box; transform-origin: 1.259px 1.92386px;" transform="matrix(0.965926, 0.258819, -0.258819, 0.965926, -11.365547, 12.99549)" x="63.794" y="59.861">И</text></g><g transform="matrix(0.866026, -0.499999, 0.499999, 0.866026, 445.763123, 75.874374)" style="transform-origin: 61.149px 60.859px;" id="ls"><rect x="128.057" y="87.019" width="56.813" height="42.269" transform="matrix(-0.258819, 0.965926, -0.96292, -0.270036, -95.314053, -47.294285)" style="stroke-width: 3px; stroke-linejoin: round; transform-box: fill-box; transform-origin: 50% 50%; fill: rgb(170, 238, 255); stroke: rgb(0, 170, 212);"/><text style="fill: rgb(0, 170, 212); font-size: 38px; white-space: pre; transform-box: fill-box; transform-origin: 1.16832px 1.92386px;" transform="matrix(0.965926, 0.258819, -0.258819, 0.965926, -10.324445, 13.070465)" x="63.794" y="59.861">S</text><text style="fill: rgb(0, 170, 212); font-size: 38px; white-space: pre; transform-box: fill-box; transform-origin: 6.32791px 21.1976px;" transform="matrix(-0.642787, 0.766045, -0.766045, -0.642787, -138.820511, -45.547596)" x="196.136" y="122.346">-</text></g><g transform="matrix(0.866026, -0.499999, 0.499999, 0.866026, 477.774597, 0.403286)" style="transform-origin: 61.149px 60.859px;" id="ld"><rect x="128.057" y="87.019" width="56.813" height="42.269" transform="matrix(-0.258819, 0.965926, -0.96292, -0.270036, -95.314053, -47.294285)" style="stroke-width: 3px; stroke-linejoin: round; transform-box: fill-box; transform-origin: 50% 50%; fill: rgb(170, 238, 255); stroke: rgb(0, 170, 212);"/><text style="fill: rgb(0, 170, 212); font-size: 38px; white-space: pre; transform-box: fill-box; transform-origin: 1.26497px 1.92386px;" transform="matrix(0.965926, 0.258819, -0.258819, 0.965926, -11.538404, 12.08436)"><tspan x="63.794" y="59.861">D</tspan><tspan x="63.794" dy="1em">​</tspan></text></g><g transform="matrix(0.866026, -0.499999, 0.499999, 0.866026, 494.379791, 63.482151)" style="transform-origin: 61.149px 60.859px;" id="lc"><rect x="128.057" y="87.019" width="56.813" height="42.269" transform="matrix(-0.258819, 0.965926, -0.96292, -0.270036, -95.314053, -47.294285)" style="stroke-width: 3px; stroke-linejoin: round; transform-box: fill-box; transform-origin: 50% 50%; fill: rgb(170, 238, 255); stroke: rgb(0, 170, 212);"/><text style="fill: rgb(0, 170, 212); font-size: 38px; white-space: pre; transform-box: fill-box; transform-origin: 0.486617px 1.92495px;" transform="matrix(0.844636, 0.22632, -0.258819, 0.965926, -9.981152, 12.684691)"><tspan x="63.794" y="59.861">I</tspan><tspan x="63.794" dy="1em">​</tspan></text><text style="fill: rgb(0, 170, 212); font-size: 38px; white-space: pre; transform-origin: 64.2807px 27.3126px;" transform="matrix(1.748853, 0.468605, -0.258819, 0.965926, -3.481182, -1.833487)" x="63.794" y="59.861">-</text><text style="fill: rgb(0, 170, 212); font-size: 38px; white-space: pre; transform-origin: 64.2807px 27.3126px;" transform="matrix(1.748853, 0.468605, -0.258819, 0.965926, -10.719716, 20.939919)" x="63.794" y="59.861">-</text></g><g id="ly"><path style="fill-rule: evenodd; stroke-width: 3px; stroke-linejoin: round; stroke-linecap: round; fill: rgb(233, 217, 242); stroke: rgb(113, 9, 170);" d="M 259.238 210.154 L 300.357 222.288 L 341.307 210.407 L 309.876 93.426 L 290.175 93.323 L 259.238 210.154 Z"/><text style="fill: rgb(113, 9, 170); font-size: 45px; white-space: pre;" x="288.77" y="189.323" id="">y</text></g></g></svg>