<?xml version="1.0" encoding="utf-8"?>
<svg xmlns="http://www.w3.org/2000/svg" viewBox="0 0 600 250" xmlns:bx="https://boxy-svg.com" width="600px" height="250px"><defs><bx:export><bx:file format="svg" path="Sem título.svg" normalization="{&quot;resetTransformOrigins&quot;:true,&quot;convertTextsToPaths&quot;:true,&quot;embedExternalFonts&quot;:true}"/><bx:file format="svg" href="#object-0" path="Sem título 2.svg"/></bx:export></defs><g id="ls_n" style="opacity: 0.2;"><rect x="128.057" y="87.019" width="56.813" height="42.269" transform="matrix(-0.258819, 0.965926, -0.96292, -0.270036, 205.780566, -61.068671)" style="fill: rgb(255, 255, 255); stroke-width: 3px; stroke-linejoin: round; stroke: rgb(0, 0, 0);"/><path d="M 51.84 58.69 L 55.24 58.39 Q 55.48 60.44 56.36 61.74 Q 57.24 63.05 59.1 63.86 Q 60.95 64.67 63.27 64.67 Q 65.33 64.67 66.91 64.05 Q 68.48 63.44 69.25 62.37 Q 70.02 61.31 70.02 60.05 Q 70.02 58.77 69.28 57.81 Q 68.54 56.85 66.83 56.21 Q 65.74 55.78 61.99 54.88 Q 58.24 53.98 56.74 53.18 Q 54.79 52.16 53.84 50.65 Q 52.88 49.14 52.88 47.26 Q 52.88 45.2 54.05 43.41 Q 55.22 41.62 57.46 40.69 Q 59.71 39.77 62.45 39.77 Q 65.48 39.77 67.79 40.74 Q 70.1 41.71 71.34 43.61 Q 72.59 45.5 72.68 47.89 L 69.23 48.15 Q 68.95 45.57 67.34 44.26 Q 65.74 42.94 62.6 42.94 Q 59.34 42.94 57.84 44.14 Q 56.35 45.33 56.35 47.02 Q 56.35 48.49 57.41 49.43 Q 58.45 50.38 62.83 51.37 Q 67.22 52.36 68.86 53.11 Q 71.23 54.2 72.36 55.88 Q 73.49 57.56 73.49 59.75 Q 73.49 61.92 72.25 63.84 Q 71.01 65.76 68.68 66.83 Q 66.35 67.89 63.44 67.89 Q 59.75 67.89 57.25 66.82 Q 54.75 65.74 53.33 63.58 Q 51.92 61.42 51.84 58.69 Z" transform="matrix(0.965926, 0.258819, -0.258819, 0.965926, 14.796739, -5.754877)"/></g><g transform="matrix(1, 0, 0, 1, 48.512836, 13.390057)" style="opacity: 0.2;" id="lp_n"><rect x="128.057" y="87.019" width="56.813" height="42.269" transform="matrix(-0.258819, 0.965926, -0.96292, -0.270036, 205.780566, -61.068671)" style="fill: rgb(255, 255, 255); stroke: rgb(0, 0, 0); stroke-width: 3px; stroke-linejoin: round;"/><path d="M 51.25 63.99 L 51.25 36.78 L 61.51 36.78 Q 64.22 36.78 65.65 37.04 Q 67.65 37.38 69.01 38.32 Q 70.36 39.25 71.19 40.94 Q 72.01 42.63 72.01 44.65 Q 72.01 48.12 69.81 50.52 Q 67.6 52.93 61.83 52.93 L 54.85 52.93 L 54.85 63.99 Z M 54.85 49.72 L 61.88 49.72 Q 65.37 49.72 66.84 48.42 Q 68.3 47.12 68.3 44.76 Q 68.3 43.06 67.44 41.84 Q 66.58 40.63 65.17 40.24 Q 64.26 39.99 61.81 39.99 L 54.85 39.99 Z" transform="matrix(0.965926, 0.258819, -0.258819, 0.965926, 15.413548, -2.673642)"/></g><g transform="matrix(1, 0, 0, 1, 96.804245, 26.332392)" style="opacity: 0.2;" id="lt_n"><rect x="128.057" y="87.019" width="56.813" height="42.269" transform="matrix(-0.258819, 0.965926, -0.96292, -0.270036, 205.780566, -61.068671)" style="fill: rgb(255, 255, 255); stroke: rgb(0, 0, 0); stroke-width: 3px; stroke-linejoin: round;"/><path d="M 58.17 63.99 L 58.17 39.99 L 49.21 39.99 L 49.21 36.78 L 70.77 36.78 L 70.77 39.99 L 61.77 39.99 L 61.77 63.99 Z" transform="matrix(0.965926, 0.258819, -0.258819, 0.965926, 16.779152, -1.932539)" style="text-wrap-mode: nowrap;"/></g><g transform="matrix(1, 0, 0, 1, 145.193253, 39.110443)" style="opacity: 0.2;" id="star_n"><rect x="128.057" y="87.019" width="56.813" height="42.269" transform="matrix(-0.258819, 0.965926, -0.96292, -0.270036, 205.780566, -61.068671)" style="fill: rgb(255, 255, 255); stroke: rgb(0, 0, 0); stroke-width: 3px; stroke-linejoin: round;"/><path d="M 49.88 34.76 L 51.01 31.3 Q 54.89 32.66 56.65 33.66 Q 56.18 29.24 56.16 27.58 L 59.7 27.58 Q 59.62 30 59.14 33.64 Q 61.65 32.37 64.9 31.3 L 66.02 34.76 Q 62.92 35.79 59.94 36.13 Q 61.43 37.42 64.14 40.74 L 61.21 42.82 Q 59.79 40.89 57.87 37.57 Q 56.06 41.01 54.69 42.82 L 51.81 40.74 Q 54.64 37.25 55.86 36.13 Q 52.71 35.52 49.88 34.76 Z" transform="matrix(0.965926, 0.258819, -0.258819, 0.965926, 14.925819, 11.079206)" style="text-wrap-mode: nowrap;"/><path transform="matrix(0.965926, 0.258819, -0.258819, 0.965926, 14.925819, 11.079206)" style="text-wrap-mode: nowrap;"/></g><g transform="matrix(1, 0, 0, 1, 193.014267, 51.868351)" style="opacity: 0.2;" id="ln_n"><rect x="128.057" y="87.019" width="56.813" height="42.269" transform="matrix(-0.258819, 0.965926, -0.96292, -0.270036, 205.780566, -61.068671)" style="fill: rgb(255, 255, 255); stroke: rgb(0, 0, 0); stroke-width: 3px; stroke-linejoin: round;"/><path d="M 51.21 63.99 L 51.21 36.78 L 54.91 36.78 L 69.19 58.14 L 69.19 36.78 L 72.65 36.78 L 72.65 63.99 L 68.95 63.99 L 54.67 42.61 L 54.67 63.99 Z" transform="matrix(0.965926, 0.258819, -0.258819, 0.965926, 14.099409, -2.097944)" style="text-wrap-mode: nowrap;"/></g><g transform="matrix(1, 0, 0, 1, -16.730959, 62.839111)" style="opacity: 0.2;" id="lk_n"><rect x="128.057" y="87.019" width="56.813" height="42.269" transform="matrix(-0.258819, 0.965926, -0.96292, -0.270036, 205.780566, -61.068671)" style="fill: rgb(255, 255, 255); stroke: rgb(0, 0, 0); stroke-width: 3px; stroke-linejoin: round;"/><path d="M 51.1 63.99 L 51.1 36.78 L 54.7 36.78 L 54.7 50.27 L 68.21 36.78 L 73.09 36.78 L 61.68 47.81 L 73.59 63.99 L 68.84 63.99 L 59.16 50.22 L 54.7 54.56 L 54.7 63.99 Z" transform="matrix(0.965926, 0.258819, -0.258819, 0.965926, 15.200152, -2.844755)" style="text-wrap-mode: nowrap;"/></g><g transform="matrix(1, 0, 0, 1, 31.454325, 75.796806)" style="opacity: 0.2;" id="lm_n"><rect x="128.057" y="87.019" width="56.813" height="42.269" transform="matrix(-0.258819, 0.965926, -0.96292, -0.270036, 205.780566, -61.068671)" style="fill: rgb(255, 255, 255); stroke: rgb(0, 0, 0); stroke-width: 3px; stroke-linejoin: round;"/><path d="M 51.14 63.99 L 51.14 36.78 L 56.56 36.78 L 63 56.04 Q 63.89 58.74 64.3 60.07 Q 64.76 58.59 65.74 55.71 L 72.26 36.78 L 77.1 36.78 L 77.1 63.99 L 73.63 63.99 L 73.63 41.22 L 65.72 63.99 L 62.48 63.99 L 54.61 40.83 L 54.61 63.99 Z" transform="matrix(0.965926, 0.258819, -0.258819, 0.965926, 11.267015, -2.847051)" style="text-wrap-mode: nowrap;"/></g><g transform="matrix(1, 0, 0, 1, 79.555672, 88.5886)" style="opacity: 0.2;" id="lf_n"><rect x="128.057" y="87.019" width="56.813" height="42.269" transform="matrix(-0.258819, 0.965926, -0.96292, -0.270036, 205.780566, -61.068671)" style="fill: rgb(255, 255, 255); stroke: rgb(0, 0, 0); stroke-width: 3px; stroke-linejoin: round;"/><path d="M 51.44 63.99 L 51.44 36.78 L 69.79 36.78 L 69.79 39.99 L 55.04 39.99 L 55.04 48.42 L 67.8 48.42 L 67.8 51.63 L 55.04 51.63 L 55.04 63.99 Z" transform="matrix(0.965926, 0.258819, -0.258819, 0.965926, 15.860664, -1.66449)" style="text-wrap-mode: nowrap;"/></g><g transform="matrix(1, 0, 0, 1, 128.397049, 101.486099)" style="opacity: 0.2;" id="lr_n"><rect x="128.057" y="87.019" width="56.813" height="42.269" transform="matrix(-0.258819, 0.965926, -0.96292, -0.270036, 205.780566, -61.068671)" style="fill: rgb(255, 255, 255); stroke: rgb(0, 0, 0); stroke-width: 3px; stroke-linejoin: round;"/><path d="M 51.31 63.99 L 51.31 36.78 L 63.37 36.78 Q 67 36.78 68.9 37.52 Q 70.79 38.25 71.92 40.11 Q 73.05 41.96 73.05 44.21 Q 73.05 47.1 71.18 49.09 Q 69.31 51.07 65.39 51.61 Q 66.82 52.3 67.56 52.96 Q 69.14 54.41 70.55 56.58 L 75.28 63.99 L 70.75 63.99 L 67.15 58.33 Q 65.58 55.88 64.56 54.58 Q 63.53 53.28 62.73 52.76 Q 61.92 52.24 61.09 52.04 Q 60.47 51.91 59.08 51.91 L 54.91 51.91 L 54.91 63.99 Z M 54.91 48.79 L 62.64 48.79 Q 65.11 48.79 66.5 48.28 Q 67.9 47.77 68.62 46.65 Q 69.34 45.52 69.34 44.21 Q 69.34 42.28 67.94 41.03 Q 66.54 39.79 63.52 39.79 L 54.91 39.79 Z" transform="matrix(0.965926, 0.258819, -0.258819, 0.965926, 14.885262, -1.357588)" style="text-wrap-mode: nowrap;"/></g><g transform="matrix(1, 0, 0, 1, 176.392685, 114.700752)" style="opacity: 0.2;" id="ll_n"><rect x="128.057" y="87.019" width="56.813" height="42.269" transform="matrix(-0.258819, 0.965926, -0.96292, -0.270036, 205.780566, -61.068671)" style="fill: rgb(255, 255, 255); stroke: rgb(0, 0, 0); stroke-width: 3px; stroke-linejoin: round;"/><path d="M 51.1 63.99 L 51.1 36.78 L 54.7 36.78 L 54.7 60.78 L 68.1 60.78 L 68.1 63.99 Z" transform="matrix(0.965926, 0.258819, -0.258819, 0.965926, 16.564699, -1.367473)" style="text-wrap-mode: nowrap;"/></g><g transform="matrix(0.866026, -0.499999, 0.499999, 0.866026, 261.88011, 90.582346)" style="opacity: 0.2;" id="ro_n"><rect x="128.057" y="87.019" width="56.813" height="42.269" transform="matrix(-0.258819, 0.965926, -0.96292, -0.270036, 205.780566, -61.068671)" style="fill: rgb(255, 255, 255); stroke: rgb(0, 0, 0); stroke-width: 3px; stroke-linejoin: round;"/><path d="M 50.16 50.74 Q 50.16 43.97 53.79 40.13 Q 57.43 36.3 63.18 36.3 Q 66.95 36.3 69.97 38.1 Q 73 39.9 74.58 43.12 Q 76.17 46.34 76.17 50.42 Q 76.17 54.56 74.5 57.83 Q 72.83 61.09 69.77 62.77 Q 66.71 64.45 63.16 64.45 Q 59.32 64.45 56.3 62.59 Q 53.27 60.74 51.72 57.53 Q 50.16 54.32 50.16 50.74 Z M 53.87 50.79 Q 53.87 55.71 56.51 58.54 Q 59.16 61.37 63.15 61.37 Q 67.21 61.37 69.83 58.51 Q 72.46 55.65 72.46 50.4 Q 72.46 47.08 71.34 44.61 Q 70.21 42.13 68.05 40.76 Q 65.89 39.4 63.2 39.4 Q 59.38 39.4 56.62 42.03 Q 53.87 44.65 53.87 50.79 Z" transform="matrix(0.965926, 0.258818, -0.258818, 0.965926, 14.092225, -1.947442)" style="text-wrap-mode: nowrap;"/></g><g transform="matrix(0.866026, -0.499999, 0.499999, 0.866026, 375.262786, 127.898113)" style="opacity: 0.2;" id="rl_n"><rect x="128.057" y="87.019" width="56.813" height="42.269" transform="matrix(-0.258819, 0.965926, -0.96292, -0.270036, 205.780566, -61.068671)" style="fill: rgb(255, 255, 255); stroke: rgb(0, 0, 0); stroke-width: 3px; stroke-linejoin: round;"/><path d="M 51.31 63.99 L 51.31 36.78 L 63.37 36.78 Q 67 36.78 68.9 37.52 Q 70.79 38.25 71.92 40.11 Q 73.05 41.96 73.05 44.21 Q 73.05 47.1 71.18 49.09 Q 69.31 51.07 65.39 51.61 Q 66.82 52.3 67.56 52.96 Q 69.14 54.41 70.55 56.58 L 75.28 63.99 L 70.75 63.99 L 67.15 58.33 Q 65.58 55.88 64.56 54.58 Q 63.53 53.28 62.73 52.76 Q 61.92 52.24 61.09 52.04 Q 60.47 51.91 59.08 51.91 L 54.91 51.91 L 54.91 63.99 Z M 54.91 48.79 L 62.64 48.79 Q 65.11 48.79 66.5 48.28 Q 67.9 47.77 68.62 46.65 Q 69.34 45.52 69.34 44.21 Q 69.34 42.28 67.94 41.03 Q 66.54 39.79 63.52 39.79 L 54.91 39.79 Z" transform="matrix(0.965926, 0.258818, -0.258818, 0.965926, 16.961788, -8.244875)" style="text-wrap-mode: nowrap;"/><path d="M 51.1 63.99 L 51.1 36.78 L 54.7 36.78 L 54.7 60.78 L 68.1 60.78 L 68.1 63.99 Z" transform="matrix(0.965926, 0.258818, -0.258818, 0.965926, 15.003201, -1.25082)" style="text-wrap-mode: nowrap;"/></g><g transform="matrix(0.866026, -0.499999, 0.499999, 0.866026, 358.319366, 64.393059)" style="opacity: 0.2;" id="ri_n"><rect x="128.057" y="87.019" width="56.813" height="42.269" transform="matrix(-0.258819, 0.965926, -0.96292, -0.270036, 205.780566, -61.068671)" style="fill: rgb(255, 255, 255); stroke: rgb(0, 0, 0); stroke-width: 3px; stroke-linejoin: round;"/><path d="M 51.86 63.99 L 51.86 36.78 L 55.46 36.78 L 55.46 63.99 Z" transform="matrix(0.965926, 0.258818, -0.258818, 0.965926, 22.0756, 0.337713)" style="text-wrap-mode: nowrap;"/></g><g transform="matrix(0.866026, -0.499999, 0.499999, 0.866026, 327.019347, 140.056408)" style="opacity: 0.2;" id="ru_n"><rect x="128.057" y="87.019" width="56.813" height="42.269" transform="matrix(-0.258819, 0.965926, -0.96292, -0.270036, 205.780566, -61.068671)" style="fill: rgb(255, 255, 255); stroke: rgb(0, 0, 0); stroke-width: 3px; stroke-linejoin: round;"/><path d="M 69.1 36.78 L 72.7 36.78 L 72.7 52.5 Q 72.7 56.6 71.77 59.01 Q 70.85 61.43 68.42 62.94 Q 66 64.45 62.07 64.45 Q 58.25 64.45 55.82 63.13 Q 53.39 61.82 52.35 59.32 Q 51.31 56.82 51.31 52.5 L 51.31 36.78 L 54.91 36.78 L 54.91 52.48 Q 54.91 56.03 55.57 57.71 Q 56.22 59.38 57.83 60.29 Q 59.43 61.2 61.75 61.2 Q 65.72 61.2 67.41 59.4 Q 69.1 57.6 69.1 52.48 Z" transform="matrix(0.965926, 0.258818, -0.258818, 0.965926, 14.018598, -1.607286)" style="text-wrap-mode: nowrap;"/></g><g transform="matrix(0.866026, -0.499999, 0.499999, 0.866026, 278.397247, 153.087612)" style="opacity: 0.2;" id="re_n"><rect x="128.057" y="87.019" width="56.813" height="42.269" transform="matrix(-0.258819, 0.965926, -0.96292, -0.270036, 205.780566, -61.068671)" style="fill: rgb(255, 255, 255); stroke: rgb(0, 0, 0); stroke-width: 3px; stroke-linejoin: round;"/><path d="M 51.33 63.99 L 51.33 36.78 L 70.99 36.78 L 70.99 39.99 L 54.93 39.99 L 54.93 48.33 L 69.97 48.33 L 69.97 51.52 L 54.93 51.52 L 54.93 60.78 L 71.62 60.78 L 71.62 63.99 Z" transform="matrix(0.965926, 0.258818, -0.258818, 0.965926, 15.014351, -1.667485)" style="text-wrap-mode: nowrap;"/></g><g transform="matrix(0.866026, -0.499999, 0.499999, 0.866026, 309.843215, 77.920809)" style="opacity: 0.2;" id="ra_n"><rect x="128.057" y="87.019" width="56.813" height="42.269" transform="matrix(-0.258819, 0.965926, -0.96292, -0.270036, 205.780566, -61.068671)" style="fill: rgb(255, 255, 255); stroke: rgb(0, 0, 0); stroke-width: 3px; stroke-linejoin: round;"/><path d="M 48.26 63.99 L 58.71 36.78 L 62.59 36.78 L 73.72 63.99 L 69.62 63.99 L 66.45 55.75 L 55.07 55.75 L 52.09 63.99 Z M 56.11 52.82 L 65.33 52.82 L 62.5 45.28 Q 61.2 41.85 60.57 39.64 Q 60.05 42.26 59.1 44.84 Z" transform="matrix(0.965926, 0.258818, -0.258818, 0.965926, 14.970514, -1.749107)" style="text-wrap-mode: nowrap;"/></g><g transform="matrix(0.866026, -0.499999, 0.499999, 0.866026, 407.021911, 51.934464)" style="opacity: 0.2;" id="rn_n"><rect x="128.057" y="87.019" width="56.813" height="42.269" transform="matrix(-0.258819, 0.965926, -0.96292, -0.270036, 205.780566, -61.068671)" style="fill: rgb(255, 255, 255); stroke: rgb(0, 0, 0); stroke-width: 3px; stroke-linejoin: round;"/><path d="M 51.31 36.78 L 54.57 36.78 L 54.57 58.33 L 69.05 36.78 L 72.66 36.78 L 72.66 63.99 L 69.4 63.99 L 69.4 42.5 L 54.91 63.99 L 51.31 63.99 Z" transform="matrix(0.965926, 0.258818, -0.258818, 0.965926, 13.484242, -2.372994)" style="text-wrap-mode: nowrap;"/></g><g transform="matrix(0.866026, -0.499999, 0.499999, 0.866026, 423.526061, 114.602337)" style="opacity: 0.2;" id="rs_n"><rect x="128.057" y="87.019" width="56.813" height="42.269" transform="matrix(-0.258819, 0.965926, -0.96292, -0.270036, 205.780566, -61.068671)" style="fill: rgb(255, 255, 255); stroke: rgb(0, 0, 0); stroke-width: 3px; stroke-linejoin: round;"/><path d="M 50.03 55.25 L 53.42 54.95 Q 53.66 56.99 54.55 58.3 Q 55.43 59.61 57.28 60.41 Q 59.14 61.22 61.46 61.22 Q 63.52 61.22 65.09 60.61 Q 66.67 60 67.44 58.93 Q 68.21 57.86 68.21 56.6 Q 68.21 55.32 67.47 54.37 Q 66.73 53.41 65.02 52.76 Q 63.92 52.33 60.18 51.43 Q 56.43 50.53 54.93 49.74 Q 52.98 48.72 52.02 47.2 Q 51.07 45.69 51.07 43.82 Q 51.07 41.76 52.24 39.97 Q 53.4 38.18 55.65 37.25 Q 57.89 36.32 60.64 36.32 Q 63.66 36.32 65.97 37.3 Q 68.28 38.27 69.53 40.16 Q 70.77 42.05 70.86 44.45 L 67.41 44.71 Q 67.13 42.13 65.53 40.81 Q 63.92 39.49 60.79 39.49 Q 57.52 39.49 56.03 40.69 Q 54.54 41.89 54.54 43.58 Q 54.54 45.04 55.59 45.99 Q 56.63 46.93 61.02 47.93 Q 65.41 48.92 67.04 49.66 Q 69.42 50.76 70.55 52.44 Q 71.68 54.11 71.68 56.3 Q 71.68 58.48 70.44 60.4 Q 69.19 62.32 66.87 63.38 Q 64.54 64.45 61.62 64.45 Q 57.93 64.45 55.44 63.37 Q 52.94 62.3 51.52 60.14 Q 50.1 57.97 50.03 55.25 Z" transform="matrix(0.965926, 0.258818, -0.258818, 0.965926, 15.355402, -2.164034)" style="text-wrap-mode: nowrap;"/><path d="M 49.53 55.82 L 49.53 52.46 L 59.79 52.46 L 59.79 55.82 Z" transform="matrix(-0.707106, 0.707108, -0.707108, -0.707106, 138.914124, 61.394394)" style="text-wrap-mode: nowrap;"/></g><g transform="matrix(0.866026, -0.499999, 0.499999, 0.866026, 455.537536, 39.131253)" style="opacity: 0.2;" id="rd_n"><rect x="128.057" y="87.019" width="56.813" height="42.269" transform="matrix(-0.258819, 0.965926, -0.96292, -0.270036, 205.780566, -61.068671)" style="fill: rgb(255, 255, 255); stroke: rgb(0, 0, 0); stroke-width: 3px; stroke-linejoin: round;"/><path d="M 51.25 63.99 L 51.25 36.78 L 60.62 36.78 Q 63.79 36.78 65.46 37.17 Q 67.8 37.71 69.45 39.12 Q 71.61 40.94 72.67 43.77 Q 73.74 46.6 73.74 50.24 Q 73.74 53.34 73.02 55.73 Q 72.29 58.12 71.16 59.69 Q 70.03 61.26 68.68 62.16 Q 67.34 63.06 65.44 63.52 Q 63.53 63.99 61.07 63.99 Z M 54.85 60.78 L 60.66 60.78 Q 63.35 60.78 64.88 60.28 Q 66.41 59.77 67.32 58.86 Q 68.6 57.58 69.31 55.42 Q 70.03 53.26 70.03 50.18 Q 70.03 45.91 68.63 43.62 Q 67.23 41.33 65.22 40.55 Q 63.78 39.99 60.57 39.99 L 54.85 39.99 Z" transform="matrix(0.965926, 0.258818, -0.258818, 0.965926, 14.028662, -2.819347)" style="text-wrap-mode: nowrap;"/></g><g transform="matrix(0.866026, -0.499999, 0.499999, 0.866026, 472.14273, 102.210114)" style="opacity: 0.2;" id="rc_n"><rect x="128.057" y="87.019" width="56.813" height="42.269" transform="matrix(-0.258819, 0.965926, -0.96292, -0.270036, 205.780566, -61.068671)" style="fill: rgb(255, 255, 255); stroke: rgb(0, 0, 0); stroke-width: 3px; stroke-linejoin: round;"/><path d="M 44.66 48.6 L 66.56 48.6 L 66.56 52.6 L 40.25 52.6 L 40.25 26.85 L 65.66 26.85 L 65.66 30.85 L 44.66 30.85 Z" transform="matrix(0.767009, 0.205519, -0.23519, 0.877745, 30.11833, 15.57861)" style="text-wrap-mode: nowrap;"/></g><g id="ly_n" style="opacity: 0.2;" transform="matrix(1, 0, 0, 1, 57.186993, 0)"><path style="fill-rule: evenodd; stroke-width: 3; stroke-linejoin: round; stroke-linecap: round; stroke: rgb(0, 0, 0); fill: rgb(255, 255, 255);" d="M 202.113 210.131 L 243.232 222.265 L 284.182 210.384 L 252.751 93.403 L 233.05 93.3 L 202.113 210.131 Z"/><path d="M 235.77 194.68 L 235.4 191.55 Q 236.49 191.84 237.31 191.84 Q 238.42 191.84 239.09 191.47 Q 239.76 191.1 240.18 190.43 Q 240.5 189.93 241.2 187.95 Q 241.3 187.67 241.5 187.13 L 234.02 167.39 L 237.62 167.39 L 241.72 178.8 Q 242.52 180.97 243.15 183.36 Q 243.73 181.06 244.53 178.87 L 248.74 167.39 L 252.08 167.39 L 244.58 187.43 Q 243.38 190.68 242.71 191.9 Q 241.82 193.55 240.67 194.32 Q 239.52 195.09 237.92 195.09 Q 236.96 195.09 235.77 194.68 Z" style="text-wrap-mode: nowrap;"/></g><g id="ls" style="" transform="matrix(1, 0, 0, 1, 0.029054, -0.008759)"><rect x="128.057" y="87.019" width="56.813" height="42.269" transform="matrix(-0.258819, 0.965926, -0.96292, -0.270036, 205.780566, -61.068671)" style="stroke-width: 3px; stroke-linejoin: round; fill: rgb(233, 217, 242); stroke: rgb(113, 9, 170);"/><path d="M 51.84 58.69 L 55.24 58.39 Q 55.48 60.44 56.36 61.74 Q 57.24 63.05 59.1 63.86 Q 60.95 64.67 63.27 64.67 Q 65.33 64.67 66.91 64.05 Q 68.48 63.44 69.25 62.37 Q 70.02 61.31 70.02 60.05 Q 70.02 58.77 69.28 57.81 Q 68.54 56.85 66.83 56.21 Q 65.74 55.78 61.99 54.88 Q 58.24 53.98 56.74 53.18 Q 54.79 52.16 53.84 50.65 Q 52.88 49.14 52.88 47.26 Q 52.88 45.2 54.05 43.41 Q 55.22 41.62 57.46 40.69 Q 59.71 39.77 62.45 39.77 Q 65.48 39.77 67.79 40.74 Q 70.1 41.71 71.34 43.61 Q 72.59 45.5 72.68 47.89 L 69.23 48.15 Q 68.95 45.57 67.34 44.26 Q 65.74 42.94 62.6 42.94 Q 59.34 42.94 57.84 44.14 Q 56.35 45.33 56.35 47.02 Q 56.35 48.49 57.41 49.43 Q 58.45 50.38 62.83 51.37 Q 67.22 52.36 68.86 53.11 Q 71.23 54.2 72.36 55.88 Q 73.49 57.56 73.49 59.75 Q 73.49 61.92 72.25 63.84 Q 71.01 65.76 68.68 66.83 Q 66.35 67.89 63.44 67.89 Q 59.75 67.89 57.25 66.82 Q 54.75 65.74 53.33 63.58 Q 51.92 61.42 51.84 58.69 Z" transform="matrix(0.965926, 0.258819, -0.258819, 0.965926, 14.754608, -5.747805)" style="fill: rgb(113, 9, 170); text-wrap-mode: nowrap;"/></g><g transform="matrix(1, 0, 0, 1, 48.541878, 13.381306)" style="" id="lp"><rect x="128.057" y="87.019" width="56.813" height="42.269" transform="matrix(-0.258819, 0.965926, -0.96292, -0.270036, 205.780566, -61.068671)" style="stroke-width: 3px; stroke-linejoin: round; fill: rgb(233, 217, 242); stroke: rgb(113, 9, 170);"/><path d="M 51.25 63.99 L 51.25 36.78 L 61.51 36.78 Q 64.22 36.78 65.65 37.04 Q 67.65 37.38 69.01 38.32 Q 70.36 39.25 71.19 40.94 Q 72.01 42.63 72.01 44.65 Q 72.01 48.12 69.81 50.52 Q 67.6 52.93 61.83 52.93 L 54.85 52.93 L 54.85 63.99 Z M 54.85 49.72 L 61.88 49.72 Q 65.37 49.72 66.84 48.42 Q 68.3 47.12 68.3 44.76 Q 68.3 43.06 67.44 41.84 Q 66.58 40.63 65.17 40.24 Q 64.26 39.99 61.81 39.99 L 54.85 39.99 Z" transform="matrix(0.965926, 0.258819, -0.258819, 0.965926, 15.315936, -2.673995)" style="fill: rgb(113, 9, 170); text-wrap-mode: nowrap;"/></g><g transform="matrix(1, 0, 0, 1, 96.833298, 26.323629)" style="" id="lt"><rect x="128.057" y="87.019" width="56.813" height="42.269" transform="matrix(-0.258819, 0.965926, -0.96292, -0.270036, 205.780566, -61.068671)" style="stroke-width: 3px; stroke-linejoin: round; fill: rgb(233, 217, 242); stroke: rgb(113, 9, 170);"/><path d="M 58.17 63.99 L 58.17 39.99 L 49.21 39.99 L 49.21 36.78 L 70.77 36.78 L 70.77 39.99 L 61.77 39.99 L 61.77 63.99 Z" transform="matrix(0.965926, 0.258819, -0.258819, 0.965926, 16.750111, -1.923773)" style="fill: rgb(113, 9, 170); text-wrap-mode: nowrap;"/></g><g transform="matrix(1, 0, 0, 1, 145.222305, 39.101662)" style="" id="star"><rect x="128.057" y="87.019" width="56.813" height="42.269" transform="matrix(-0.258819, 0.965926, -0.96292, -0.270036, 205.780566, -61.068671)" style="stroke-width: 3px; stroke-linejoin: round; fill: rgb(233, 217, 242); stroke: rgb(113, 9, 170);"/><path d="M 49.88 34.76 L 51.01 31.3 Q 54.89 32.66 56.65 33.66 Q 56.18 29.24 56.16 27.58 L 59.7 27.58 Q 59.62 30 59.14 33.64 Q 61.65 32.37 64.9 31.3 L 66.02 34.76 Q 62.92 35.79 59.94 36.13 Q 61.43 37.42 64.14 40.74 L 61.21 42.82 Q 59.79 40.89 57.87 37.57 Q 56.06 41.01 54.69 42.82 L 51.81 40.74 Q 54.64 37.25 55.86 36.13 Q 52.71 35.52 49.88 34.76 Z" transform="matrix(0.965926, 0.258819, -0.258819, 0.965926, 14.896765, 11.08799)" style="fill: rgb(113, 9, 170); text-wrap-mode: nowrap;"/><path transform="matrix(0.965926, 0.258819, -0.258819, 0.965926, 14.896765, 11.08799)" style="fill: rgb(113, 9, 170); text-wrap-mode: nowrap;"/></g><g transform="matrix(1, 0, 0, 1, 193.611313, 51.670254)" style="" id="ln"><rect x="128.057" y="87.019" width="56.813" height="42.269" transform="matrix(-0.258819, 0.965926, -0.96292, -0.270036, 205.780566, -61.068671)" style="stroke-width: 3px; stroke-linejoin: round; fill: rgb(233, 217, 242); stroke: rgb(113, 9, 170);"/><path d="M 51.21 63.99 L 51.21 36.78 L 54.91 36.78 L 69.19 58.14 L 69.19 36.78 L 72.65 36.78 L 72.65 63.99 L 68.95 63.99 L 54.67 42.61 L 54.67 63.99 Z" transform="matrix(0.965926, 0.258819, -0.258819, 0.965926, 13.502368, -1.899848)" style="fill: rgb(113, 9, 170); text-wrap-mode: nowrap;"/></g><g transform="matrix(1, 0, 0, 1, -16.701897, 62.830341)" style="opacity: 0.88;" id="lk"><rect x="128.057" y="87.019" width="56.813" height="42.269" transform="matrix(-0.258819, 0.965926, -0.96292, -0.270036, 205.780566, -61.068671)" style="stroke-width: 3px; stroke-linejoin: round; fill: rgb(233, 217, 242); stroke: rgb(113, 9, 170);"/><path d="M 51.1 63.99 L 51.1 36.78 L 54.7 36.78 L 54.7 50.27 L 68.21 36.78 L 73.09 36.78 L 61.68 47.81 L 73.59 63.99 L 68.84 63.99 L 59.16 50.22 L 54.7 54.56 L 54.7 63.99 Z" transform="matrix(0.965926, 0.258819, -0.258819, 0.965926, 15.171089, -2.835984)" style="fill: rgb(113, 9, 170); text-wrap-mode: nowrap;"/></g><g transform="matrix(1, 0, 0, 1, 31.483368, 75.788048)" style="" id="lm"><rect x="128.057" y="87.019" width="56.813" height="42.269" transform="matrix(-0.258819, 0.965926, -0.96292, -0.270036, 205.780566, -61.068671)" style="stroke-width: 3px; stroke-linejoin: round; fill: rgb(233, 217, 242); stroke: rgb(113, 9, 170);"/><path d="M 51.14 63.99 L 51.14 36.78 L 56.56 36.78 L 63 56.04 Q 63.89 58.74 64.3 60.07 Q 64.76 58.59 65.74 55.71 L 72.26 36.78 L 77.1 36.78 L 77.1 63.99 L 73.63 63.99 L 73.63 41.22 L 65.72 63.99 L 62.48 63.99 L 54.61 40.83 L 54.61 63.99 Z" transform="matrix(0.965926, 0.258819, -0.258819, 0.965926, 11.237971, -2.838299)" style="fill: rgb(113, 9, 170); text-wrap-mode: nowrap;"/></g><g transform="matrix(1, 0, 0, 1, 79.584732, 88.579826)" style="" id="lf"><rect x="128.057" y="87.019" width="56.813" height="42.269" transform="matrix(-0.258819, 0.965926, -0.96292, -0.270036, 205.780566, -61.068671)" style="stroke-width: 3px; stroke-linejoin: round; fill: rgb(233, 217, 242); stroke: rgb(113, 9, 170);"/><path d="M 51.44 63.99 L 51.44 36.78 L 69.79 36.78 L 69.79 39.99 L 55.04 39.99 L 55.04 48.42 L 67.8 48.42 L 67.8 51.63 L 55.04 51.63 L 55.04 63.99 Z" transform="matrix(0.965926, 0.258819, -0.258819, 0.965926, 15.831608, -1.655719)" style="fill: rgb(113, 9, 170); text-wrap-mode: nowrap;"/></g><g transform="matrix(1, 0, 0, 1, 128.426117, 101.477348)" style="" id="lr"><rect x="128.057" y="87.019" width="56.813" height="42.269" transform="matrix(-0.258819, 0.965926, -0.96292, -0.270036, 205.780566, -61.068671)" style="stroke-width: 3px; stroke-linejoin: round; fill: rgb(233, 217, 242); stroke: rgb(113, 9, 170);"/><path d="M 51.31 63.99 L 51.31 36.78 L 63.37 36.78 Q 67 36.78 68.9 37.52 Q 70.79 38.25 71.92 40.11 Q 73.05 41.96 73.05 44.21 Q 73.05 47.1 71.18 49.09 Q 69.31 51.07 65.39 51.61 Q 66.82 52.3 67.56 52.96 Q 69.14 54.41 70.55 56.58 L 75.28 63.99 L 70.75 63.99 L 67.15 58.33 Q 65.58 55.88 64.56 54.58 Q 63.53 53.28 62.73 52.76 Q 61.92 52.24 61.09 52.04 Q 60.47 51.91 59.08 51.91 L 54.91 51.91 L 54.91 63.99 Z M 54.91 48.79 L 62.64 48.79 Q 65.11 48.79 66.5 48.28 Q 67.9 47.77 68.62 46.65 Q 69.34 45.52 69.34 44.21 Q 69.34 42.28 67.94 41.03 Q 66.54 39.79 63.52 39.79 L 54.91 39.79 Z" transform="matrix(0.965926, 0.258819, -0.258819, 0.965926, 14.85619, -1.348835)" style="fill: rgb(113, 9, 170); text-wrap-mode: nowrap;"/></g><g transform="matrix(1, 0, 0, 1, 176.421722, 114.691994)" style="" id="ll"><rect x="128.057" y="87.019" width="56.813" height="42.269" transform="matrix(-0.258819, 0.965926, -0.96292, -0.270036, 205.780566, -61.068671)" style="stroke-width: 3px; stroke-linejoin: round; fill: rgb(233, 217, 242); stroke: rgb(113, 9, 170);"/><path d="M 51.1 63.99 L 51.1 36.78 L 54.7 36.78 L 54.7 60.78 L 68.1 60.78 L 68.1 63.99 Z" transform="matrix(0.965926, 0.258819, -0.258819, 0.965926, 16.535664, -1.358715)" style="fill: rgb(113, 9, 170); text-wrap-mode: nowrap;"/></g><g transform="matrix(0.866026, -0.499999, 0.499999, 0.866026, 261.909194, 90.573587)" style="" id="ro"><rect x="128.057" y="87.019" width="56.813" height="42.269" transform="matrix(-0.258819, 0.965926, -0.96292, -0.270036, 205.780566, -61.068671)" style="stroke-width: 3px; stroke-linejoin: round; fill: rgb(213, 255, 213); stroke: rgb(0, 212, 0);"/><path d="M 50.16 50.74 Q 50.16 43.97 53.79 40.13 Q 57.43 36.3 63.18 36.3 Q 66.95 36.3 69.97 38.1 Q 73 39.9 74.58 43.12 Q 76.17 46.34 76.17 50.42 Q 76.17 54.56 74.5 57.83 Q 72.83 61.09 69.77 62.77 Q 66.71 64.45 63.16 64.45 Q 59.32 64.45 56.3 62.59 Q 53.27 60.74 51.72 57.53 Q 50.16 54.32 50.16 50.74 Z M 53.87 50.79 Q 53.87 55.71 56.51 58.54 Q 59.16 61.37 63.15 61.37 Q 67.21 61.37 69.83 58.51 Q 72.46 55.65 72.46 50.4 Q 72.46 47.08 71.34 44.61 Q 70.21 42.13 68.05 40.76 Q 65.89 39.4 63.2 39.4 Q 59.38 39.4 56.62 42.03 Q 53.87 44.65 53.87 50.79 Z" transform="matrix(0.965926, 0.258818, -0.258818, 0.965926, 14.062673, -1.954381)" style="fill: rgb(0, 212, 0); text-wrap-mode: nowrap;"/></g><g transform="matrix(0.866026, -0.499999, 0.499999, 0.866026, 375.291839, 127.889355)" style="" id="rl"><rect x="128.057" y="87.019" width="56.813" height="42.269" transform="matrix(-0.258819, 0.965926, -0.96292, -0.270036, 205.780566, -61.068671)" style="stroke-width: 3px; stroke-linejoin: round; fill: rgb(170, 238, 255); stroke: rgb(0, 170, 212);"/><path d="M 51.31 63.99 L 51.31 36.78 L 63.37 36.78 Q 67 36.78 68.9 37.52 Q 70.79 38.25 71.92 40.11 Q 73.05 41.96 73.05 44.21 Q 73.05 47.1 71.18 49.09 Q 69.31 51.07 65.39 51.61 Q 66.82 52.3 67.56 52.96 Q 69.14 54.41 70.55 56.58 L 75.28 63.99 L 70.75 63.99 L 67.15 58.33 Q 65.58 55.88 64.56 54.58 Q 63.53 53.28 62.73 52.76 Q 61.92 52.24 61.09 52.04 Q 60.47 51.91 59.08 51.91 L 54.91 51.91 L 54.91 63.99 Z M 54.91 48.79 L 62.64 48.79 Q 65.11 48.79 66.5 48.28 Q 67.9 47.77 68.62 46.65 Q 69.34 45.52 69.34 44.21 Q 69.34 42.28 67.94 41.03 Q 66.54 39.79 63.52 39.79 L 54.91 39.79 Z" transform="matrix(0.965926, 0.258818, -0.258818, 0.965926, 16.93223, -8.251824)" style="fill: rgb(0, 170, 212); text-wrap-mode: nowrap;"/><path d="M 51.1 63.99 L 51.1 36.78 L 54.7 36.78 L 54.7 60.78 L 68.1 60.78 L 68.1 63.99 Z" transform="matrix(0.965926, 0.258818, -0.258818, 0.965926, 14.973678, -1.257754)" style="fill: rgb(0, 170, 212); text-wrap-mode: nowrap;"/></g><g transform="matrix(0.866026, -0.499999, 0.499999, 0.866026, 358.348357, 64.3843)" style="" id="ri"><rect x="128.057" y="87.019" width="56.813" height="42.269" transform="matrix(-0.258819, 0.965926, -0.96292, -0.270036, 205.780566, -61.068671)" style="stroke-width: 3px; stroke-linejoin: round; fill: rgb(213, 255, 213); stroke: rgb(0, 212, 0);"/><path d="M 51.86 63.99 L 51.86 36.78 L 55.46 36.78 L 55.46 63.99 Z" transform="matrix(0.965926, 0.258818, -0.258818, 0.965926, 22.046083, 0.330788)" style="fill: rgb(0, 212, 0); text-wrap-mode: nowrap;"/></g><g transform="matrix(0.866026, -0.499999, 0.499999, 0.866026, 327.0484, 140.04765)" style="" id="ru"><rect x="128.057" y="87.019" width="56.813" height="42.269" transform="matrix(-0.258819, 0.965926, -0.96292, -0.270036, 205.780566, -61.068671)" style="stroke-width: 3px; stroke-linejoin: round; fill: rgb(213, 255, 213); stroke: rgb(0, 212, 0);"/><path d="M 69.1 36.78 L 72.7 36.78 L 72.7 52.5 Q 72.7 56.6 71.77 59.01 Q 70.85 61.43 68.42 62.94 Q 66 64.45 62.07 64.45 Q 58.25 64.45 55.82 63.13 Q 53.39 61.82 52.35 59.32 Q 51.31 56.82 51.31 52.5 L 51.31 36.78 L 54.91 36.78 L 54.91 52.48 Q 54.91 56.03 55.57 57.71 Q 56.22 59.38 57.83 60.29 Q 59.43 61.2 61.75 61.2 Q 65.72 61.2 67.41 59.4 Q 69.1 57.6 69.1 52.48 Z" transform="matrix(0.965926, 0.258818, -0.258818, 0.965926, 13.989027, -1.614236)" style="fill: rgb(0, 212, 0); text-wrap-mode: nowrap;"/></g><g transform="matrix(0.866026, -0.499999, 0.499999, 0.866026, 278.42633, 153.078854)" style="" id="re"><rect x="128.057" y="87.019" width="56.813" height="42.269" transform="matrix(-0.258819, 0.965926, -0.96292, -0.270036, 205.780566, -61.068671)" style="stroke-width: 3px; stroke-linejoin: round; fill: rgb(213, 255, 213); stroke: rgb(0, 212, 0);"/><path d="M 51.33 63.99 L 51.33 36.78 L 70.99 36.78 L 70.99 39.99 L 54.93 39.99 L 54.93 48.33 L 69.97 48.33 L 69.97 51.52 L 54.93 51.52 L 54.93 60.78 L 71.62 60.78 L 71.62 63.99 Z" transform="matrix(0.965926, 0.258818, -0.258818, 0.965926, 14.98478, -1.674444)" style="fill: rgb(0, 212, 0); text-wrap-mode: nowrap;"/></g><g transform="matrix(0.866026, -0.499999, 0.499999, 0.866026, 309.872267, 77.912058)" style="" id="ra"><rect x="128.057" y="87.019" width="56.813" height="42.269" transform="matrix(-0.258819, 0.965926, -0.96292, -0.270036, 205.780566, -61.068671)" style="stroke-width: 3px; stroke-linejoin: round; fill: rgb(213, 255, 213); stroke: rgb(0, 212, 0);"/><path d="M 48.26 63.99 L 58.71 36.78 L 62.59 36.78 L 73.72 63.99 L 69.62 63.99 L 66.45 55.75 L 55.07 55.75 L 52.09 63.99 Z M 56.11 52.82 L 65.33 52.82 L 62.5 45.28 Q 61.2 41.85 60.57 39.64 Q 60.05 42.26 59.1 44.84 Z" transform="matrix(0.965926, 0.258818, -0.258818, 0.965926, 14.940981, -1.756054)" style="fill: rgb(0, 212, 0); text-wrap-mode: nowrap;"/></g><g transform="matrix(0.866026, -0.499999, 0.499999, 0.866026, 407.050994, 51.925728)" style="" id="rn"><rect x="128.057" y="87.019" width="56.813" height="42.269" transform="matrix(-0.258819, 0.965926, -0.96292, -0.270036, 205.780566, -61.068671)" style="stroke-width: 3px; stroke-linejoin: round; fill: rgb(170, 238, 255); stroke: rgb(0, 170, 212);"/><path d="M 51.31 36.78 L 54.57 36.78 L 54.57 58.33 L 69.05 36.78 L 72.66 36.78 L 72.66 63.99 L 69.4 63.99 L 69.4 42.5 L 54.91 63.99 L 51.31 63.99 Z" transform="matrix(0.965926, 0.258818, -0.258818, 0.965926, 13.454695, -2.379968)" style="fill: rgb(0, 170, 212); text-wrap-mode: nowrap;"/></g><g transform="matrix(0.866026, -0.499999, 0.499999, 0.866026, 423.555084, 114.593586)" style="" id="rs"><rect x="128.057" y="87.019" width="56.813" height="42.269" transform="matrix(-0.258819, 0.965926, -0.96292, -0.270036, 205.780566, -61.068671)" style="stroke-width: 3px; stroke-linejoin: round; fill: rgb(170, 238, 255); stroke: rgb(0, 170, 212);"/><path d="M 50.03 55.25 L 53.42 54.95 Q 53.66 56.99 54.55 58.3 Q 55.43 59.61 57.28 60.41 Q 59.14 61.22 61.46 61.22 Q 63.52 61.22 65.09 60.61 Q 66.67 60 67.44 58.93 Q 68.21 57.86 68.21 56.6 Q 68.21 55.32 67.47 54.37 Q 66.73 53.41 65.02 52.76 Q 63.92 52.33 60.18 51.43 Q 56.43 50.53 54.93 49.74 Q 52.98 48.72 52.02 47.2 Q 51.07 45.69 51.07 43.82 Q 51.07 41.76 52.24 39.97 Q 53.4 38.18 55.65 37.25 Q 57.89 36.32 60.64 36.32 Q 63.66 36.32 65.97 37.3 Q 68.28 38.27 69.53 40.16 Q 70.77 42.05 70.86 44.45 L 67.41 44.71 Q 67.13 42.13 65.53 40.81 Q 63.92 39.49 60.79 39.49 Q 57.52 39.49 56.03 40.69 Q 54.54 41.89 54.54 43.58 Q 54.54 45.04 55.59 45.99 Q 56.63 46.93 61.02 47.93 Q 65.41 48.92 67.04 49.66 Q 69.42 50.76 70.55 52.44 Q 71.68 54.11 71.68 56.3 Q 71.68 58.48 70.44 60.4 Q 69.19 62.32 66.87 63.38 Q 64.54 64.45 61.62 64.45 Q 57.93 64.45 55.44 63.37 Q 52.94 62.3 51.52 60.14 Q 50.1 57.97 50.03 55.25 Z" transform="matrix(0.965926, 0.258818, -0.258818, 0.965926, 15.325891, -2.170967)" style="fill: rgb(0, 170, 212); text-wrap-mode: nowrap;"/><path d="M 49.53 55.82 L 49.53 52.46 L 59.79 52.46 L 59.79 55.82 Z" transform="matrix(-0.707106, 0.707108, -0.707108, -0.707106, 138.884567, 61.387447)" style="fill: rgb(0, 170, 212); text-wrap-mode: nowrap;"/></g><g transform="matrix(0.866026, -0.499999, 0.499999, 0.866026, 455.566619, 39.122486)" style="" id="rd"><rect x="128.057" y="87.019" width="56.813" height="42.269" transform="matrix(-0.258819, 0.965926, -0.96292, -0.270036, 205.780566, -61.068671)" style="stroke-width: 3px; stroke-linejoin: round; fill: rgb(170, 238, 255); stroke: rgb(0, 170, 212);"/><path d="M 51.25 63.99 L 51.25 36.78 L 60.62 36.78 Q 63.79 36.78 65.46 37.17 Q 67.8 37.71 69.45 39.12 Q 71.61 40.94 72.67 43.77 Q 73.74 46.6 73.74 50.24 Q 73.74 53.34 73.02 55.73 Q 72.29 58.12 71.16 59.69 Q 70.03 61.26 68.68 62.16 Q 67.34 63.06 65.44 63.52 Q 63.53 63.99 61.07 63.99 Z M 54.85 60.78 L 60.66 60.78 Q 63.35 60.78 64.88 60.28 Q 66.41 59.77 67.32 58.86 Q 68.6 57.58 69.31 55.42 Q 70.03 53.26 70.03 50.18 Q 70.03 45.91 68.63 43.62 Q 67.23 41.33 65.22 40.55 Q 63.78 39.99 60.57 39.99 L 54.85 39.99 Z" transform="matrix(0.965926, 0.258818, -0.258818, 0.965926, 13.999084, -2.826302)" style="fill: rgb(0, 170, 212); text-wrap-mode: nowrap;"/></g><g transform="matrix(0.866026, -0.499999, 0.499999, 0.866026, 472.171722, 102.201336)" style="" id="rc"><rect x="128.057" y="87.019" width="56.813" height="42.269" transform="matrix(-0.258819, 0.965926, -0.96292, -0.270036, 205.780566, -61.068671)" style="stroke-width: 3px; stroke-linejoin: round; fill: rgb(170, 238, 255); stroke: rgb(0, 170, 212);"/><path d="M 44.66 48.6 L 66.56 48.6 L 66.56 52.6 L 40.25 52.6 L 40.25 26.85 L 65.66 26.85 L 65.66 30.85 L 44.66 30.85 Z" transform="matrix(0.767009, 0.205519, -0.23519, 0.877745, 30.088842, 15.571723)" style="fill: rgb(0, 170, 212); text-wrap-mode: nowrap;"/></g><g id="ly" style="" transform="matrix(1, 0, 0, 1, 0.029054, -0.008759)"><path style="fill-rule: evenodd; stroke-width: 3px; stroke-linejoin: round; stroke-linecap: round; fill: rgb(233, 217, 242); stroke: rgb(113, 9, 170);" d="M 259.238 210.154 L 300.357 222.288 L 341.307 210.407 L 309.876 93.426 L 290.175 93.323 L 259.238 210.154 Z"/><path d="M 292.93 194.69 L 292.56 191.56 Q 293.65 191.85 294.47 191.85 Q 295.58 191.85 296.25 191.48 Q 296.92 191.11 297.34 190.44 Q 297.66 189.94 298.36 187.96 Q 298.46 187.68 298.66 187.14 L 291.18 167.4 L 294.78 167.4 L 298.88 178.81 Q 299.68 180.98 300.31 183.37 Q 300.89 181.07 301.68 178.88 L 305.9 167.4 L 309.24 167.4 L 301.74 187.44 Q 300.53 190.68 299.87 191.91 Q 298.98 193.56 297.82 194.33 Q 296.67 195.1 295.08 195.1 Q 294.11 195.1 292.93 194.69 Z" style="fill: rgb(113, 9, 170); text-wrap-mode: nowrap;"/></g></svg>