<svg xmlns="http://www.w3.org/2000/svg" width="960" height="400" viewBox="0 0 960 400"><g fill="none" fill-rule="evenodd"><rect width="68" height="92" x="64.244" y="51.617" fill="#FFF" stroke="#000" stroke-width="4" rx="8" transform="rotate(15 98.244 97.617)"/><path fill="#000" fill-rule="nonzero" d="M98.7549647,122.368345 C101.826965,122.368345 104.578965,121.835012 107.010965,120.768345 C109.442965,119.701679 111.362965,118.197679 112.770965,116.256345 C114.178965,114.315012 114.882965,112.021679 114.882965,109.376345 C114.882965,106.901679 114.424298,104.864345 113.506965,103.264345 C112.589631,101.664345 111.373631,100.384345 109.858965,99.4243453 C108.344298,98.4643453 106.690965,97.6963453 104.898965,97.1203453 C103.106965,96.5443453 101.304298,96.0323453 99.4909647,95.5843453 C97.6776314,95.1363453 96.0136314,94.6456786 94.4989647,94.1123453 C92.9842981,93.579012 91.7682981,92.8856786 90.8509647,92.0323453 C89.9336314,91.179012 89.4749647,90.027012 89.4749647,88.5763453 C89.4749647,86.5283453 90.2642981,84.907012 91.8429647,83.7123453 C93.4216314,82.5176786 95.4696314,81.9203453 97.9869647,81.9203453 C99.7362981,81.9203453 101.325631,82.251012 102.754965,82.9123453 C104.184298,83.5736786 105.336298,84.5123453 106.210965,85.7283453 C107.085631,86.9443453 107.544298,88.4056786 107.586965,90.1123453 L107.586965,90.1123453 L114.370965,90.1123453 C114.328298,87.211012 113.570965,84.7256786 112.098965,82.6563453 C110.626965,80.587012 108.674965,78.987012 106.242965,77.8563453 C103.810965,76.7256786 101.058965,76.1603453 97.9869647,76.1603453 C94.8296314,76.1603453 92.0882981,76.7043453 89.7629647,77.7923453 C87.4376314,78.8803453 85.6242981,80.3736786 84.3229647,82.2723453 C83.0216314,84.171012 82.3709647,86.3363453 82.3709647,88.7683453 C82.3709647,91.0723453 82.8296314,92.971012 83.7469647,94.4643453 C84.6642981,95.9576786 85.8802981,97.1523453 87.3949647,98.0483453 C88.9096314,98.9443453 90.5736314,99.6803453 92.3869647,100.256345 C94.2002981,100.832345 96.0029647,101.355012 97.7949647,101.824345 C99.5869647,102.293679 101.240298,102.827012 102.754965,103.424345 C104.269631,104.021679 105.485631,104.789679 106.402965,105.728345 C107.320298,106.667012 107.778965,107.904345 107.778965,109.440345 C107.778965,111.701679 106.946965,113.461679 105.282965,114.720345 C103.618965,115.979012 101.421631,116.608345 98.6909647,116.608345 C95.4909647,116.608345 92.9736314,115.659012 91.1389647,113.760345 C89.3042981,111.861679 88.3869647,109.163012 88.3869647,105.664345 L88.3869647,105.664345 L81.6669647,105.664345 C81.6669647,109.205679 82.3709647,112.213679 83.7789647,114.688345 C85.1869647,117.163012 87.1709647,119.061679 89.7309647,120.384345 C92.2909647,121.707012 95.2989647,122.368345 98.7549647,122.368345 Z" transform="rotate(15 98.275 99.264)"/><rect width="68" height="92" x="141.518" y="72.323" fill="#FFF" stroke="#000" stroke-width="4" rx="8" transform="rotate(15 175.518 118.323)"/><path fill="#000" fill-rule="nonzero" d="M159.773031,97.6338689 L159.773031,142.305869 L166.557031,142.305869 L166.557031,125.985869 L176.349031,125.985869 C179.492142,125.985869 182.264191,125.453062 184.665179,124.387449 L185.085031,124.193869 C187.581031,122.999202 189.511698,121.324536 190.877031,119.169869 C192.242364,117.015202 192.925031,114.508536 192.925031,111.649869 C192.925031,108.791202 192.263698,106.316536 190.941031,104.225869 C189.618364,102.135202 187.762364,100.513869 185.373031,99.3618689 C182.983698,98.2098689 180.167698,97.6338689 176.925031,97.6338689 L176.925031,97.6338689 L166.557031,97.6338689 L164.637031,97.6338689 L159.773031,97.6338689 Z M166.557031,103.393869 L176.925031,103.393869 C179.613031,103.393869 181.767698,104.151202 183.389031,105.665869 C185.010364,107.180536 185.821031,109.175202 185.821031,111.649869 C185.821031,114.209869 184.946364,116.279202 183.197031,117.857869 C181.447698,119.436536 179.143698,120.225869 176.285031,120.225869 L176.285031,120.225869 L166.557031,120.225869 L166.557031,103.393869 Z" transform="rotate(15 176.349 119.97)"/><rect width="68" height="92" x="218.793" y="93.028" fill="#FFF" stroke="#000" stroke-width="4" rx="8" transform="rotate(15 252.793 139.028)"/><polygon fill="#000" fill-rule="nonzero" points="256.055 163.011 256.055 124.099 270.455 124.099 270.455 118.339 234.871 118.339 234.871 124.099 249.271 124.099 249.271 163.011" transform="rotate(15 252.663 140.675)"/><rect width="68" height="92" x="296.067" y="113.734" fill="#FFF" stroke="#000" stroke-width="4" rx="8" transform="rotate(15 330.067 159.734)"/><polygon fill="#000" fill-rule="nonzero" points="335.505 171.749 339.665 168.741 333.713 161.957 342.289 159.589 340.689 154.917 332.497 157.797 332.497 149.285 327.313 149.285 327.313 157.797 319.249 154.917 317.649 159.589 326.161 161.957 320.401 168.677 324.497 171.685 329.937 164.773" transform="rotate(15 329.97 160.517)"/><rect width="68" height="92" x="373.341" y="134.439" fill="#FFF" stroke="#000" stroke-width="4" rx="8" transform="rotate(15 407.34 180.44)"/><polygon fill="#000" fill-rule="nonzero" points="397.227 204.422 397.227 182.342 396.651 168.966 415.403 204.422 423.787 204.422 423.787 159.75 417.259 159.75 417.259 181.766 417.771 195.59 399.147 159.75 390.699 159.75 390.699 204.422" transform="rotate(15 407.243 182.086)"/><rect width="68" height="92" x="37.327" y="152.074" fill="#FFF" stroke="#000" stroke-width="4" rx="8" transform="rotate(15 71.327 198.074)"/><polygon fill="#000" fill-rule="nonzero" points="62.238 222.057 62.238 206.185 67.678 200.233 82.142 222.057 90.27 222.057 72.35 195.177 88.734 177.385 80.286 177.385 68.19 190.185 61.79 197.481 62.238 188.905 62.238 177.385 55.454 177.385 55.454 222.057" transform="rotate(15 72.862 199.72)"/><rect width="68" height="92" x="114.601" y="172.779" fill="#FFF" stroke="#000" stroke-width="4" rx="8" transform="rotate(15 148.601 218.78)"/><polygon fill="#000" fill-rule="nonzero" points="136.952 242.762 136.952 218.25 136.824 209.034 139.128 218.25 145.784 242.762 151.16 242.762 157.88 218.25 160.248 209.162 159.992 218.25 159.992 242.762 166.52 242.762 166.52 198.09 157.432 198.09 150.456 222.986 148.664 230.73 146.936 222.986 140.024 198.09 130.488 198.09 130.488 242.762" transform="rotate(15 148.504 220.426)"/><rect width="68" height="92" x="191.875" y="193.485" fill="#FFF" stroke="#000" stroke-width="4" rx="8" transform="rotate(15 225.875 239.485)"/><polygon fill="#000" fill-rule="nonzero" points="216.658 263.468 216.658 243.18 234.386 243.18 234.386 237.42 216.658 237.42 216.658 224.556 242.258 224.556 242.258 218.796 209.874 218.796 209.874 263.468" transform="rotate(15 226.066 241.132)"/><rect width="68" height="92" x="269.149" y="214.19" fill="#FFF" stroke="#000" stroke-width="4" rx="8" transform="rotate(15 303.15 260.19)"/><path fill="#000" fill-rule="nonzero" d="M287.659982,239.501202 L287.659982,284.173202 L294.443982,284.173202 L294.443982,265.485202 L299.899982,265.485202 L300.357093,265.75498 C301.138723,266.225498 301.883612,266.712609 302.59176,267.216313 L303.115982,267.597202 C305.185316,269.133202 306.923982,270.797202 308.331982,272.589202 C309.739982,274.381202 310.859982,276.258535 311.691982,278.221202 C312.523982,280.183869 313.067982,282.167869 313.323982,284.173202 L313.323982,284.173202 L320.235982,284.173202 C320.022649,282.039869 319.563982,279.949202 318.859982,277.901202 C318.155982,275.853202 317.131982,273.869202 315.787982,271.949202 C314.443982,270.029202 312.758649,268.205202 310.731982,266.477202 C310.108393,265.94551 309.447438,265.428965 308.749118,264.927569 L308.739982,264.922202 L308.776064,264.913773 C309.258023,264.799488 309.727248,264.668059 310.183737,264.519488 L310.635982,264.365202 C312.726649,263.618535 314.507982,262.615869 315.979982,261.357202 C317.451982,260.098535 318.582649,258.679869 319.371982,257.101202 C320.161316,255.522535 320.555982,253.879869 320.555982,252.173202 C320.555982,249.485202 319.894649,247.202535 318.571982,245.325202 C317.249316,243.447869 315.435982,242.007869 313.131982,241.005202 C310.827982,240.002535 308.203982,239.501202 305.259982,239.501202 L305.259982,239.501202 L294.443982,239.501202 L292.523982,239.501202 L287.659982,239.501202 Z M294.443982,245.261202 L305.259982,245.261202 C306.795982,245.261202 308.182649,245.538535 309.419982,246.093202 C310.657316,246.647869 311.638649,247.437202 312.363982,248.461202 C313.089316,249.485202 313.451982,250.722535 313.451982,252.173202 C313.451982,253.666535 313.035982,254.989202 312.203982,256.141202 C311.371982,257.293202 310.241316,258.178535 308.811982,258.797202 C307.382649,259.415869 305.729316,259.725202 303.851982,259.725202 L303.851982,259.725202 L294.443982,259.725202 L294.443982,245.261202 Z" transform="rotate(15 304.108 261.837)"/><rect width="68" height="92" x="346.423" y="234.896" fill="#FFF" stroke="#000" stroke-width="4" rx="8" transform="rotate(15 380.423 280.896)"/><polygon fill="#000" fill-rule="nonzero" points="396.742 304.879 396.742 299.119 373.318 299.119 373.318 260.207 366.534 260.207 366.534 304.879" transform="rotate(15 381.638 282.543)"/><rect width="68" height="92" x="518.28" y="134.419" fill="#FFF" stroke="#000" stroke-width="4" rx="8" transform="rotate(-15 552.28 180.419)"/><path fill="#000" fill-rule="nonzero" d="M552.47369,205.169547 C556.271023,205.169547 559.57769,204.220213 562.39369,202.321547 C565.20969,200.42288 567.396357,197.745547 568.95369,194.289547 C570.511023,190.833547 571.28969,186.75888 571.28969,182.065547 C571.28969,177.329547 570.511023,173.233547 568.95369,169.777547 C567.396357,166.321547 565.20969,163.65488 562.39369,161.777547 C559.57769,159.900213 556.271023,158.961547 552.47369,158.961547 C548.676357,158.961547 545.36969,159.900213 542.55369,161.777547 C539.73769,163.65488 537.551023,166.321547 535.99369,169.777547 C534.436357,173.233547 533.65769,177.329547 533.65769,182.065547 C533.65769,186.75888 534.436357,190.833547 535.99369,194.289547 C537.551023,197.745547 539.73769,200.42288 542.55369,202.321547 C545.36969,204.220213 548.676357,205.169547 552.47369,205.169547 Z M552.47369,199.409547 C550.16969,199.409547 548.132357,198.705547 546.36169,197.297547 C544.591023,195.889547 543.215023,193.884213 542.23369,191.281547 C541.252357,188.67888 540.76169,185.60688 540.76169,182.065547 C540.76169,178.524213 541.252357,175.452213 542.23369,172.849547 C543.215023,170.24688 544.591023,168.241547 546.36169,166.833547 C548.132357,165.425547 550.16969,164.721547 552.47369,164.721547 C554.820357,164.721547 556.868357,165.425547 558.61769,166.833547 C560.367023,168.241547 561.732357,170.236213 562.71369,172.817547 C563.695023,175.39888 564.18569,178.481547 564.18569,182.065547 C564.18569,185.60688 563.695023,188.67888 562.71369,191.281547 C561.732357,193.884213 560.367023,195.889547 558.61769,197.297547 C556.868357,198.705547 554.820357,199.409547 552.47369,199.409547 Z" transform="rotate(-15 552.474 182.066)"/><rect width="68" height="92" x="595.554" y="113.713" fill="#FFF" stroke="#000" stroke-width="4" rx="8" transform="rotate(-15 629.554 159.713)"/><path fill="#000" fill-rule="nonzero" d="M617.843756,183.696023 L621.363756,172.432023 L637.939756,172.432023 L641.395756,183.696023 L648.371756,183.696023 L634.547756,139.024023 L624.819756,139.024023 L610.995756,183.696023 L617.843756,183.696023 Z M636.211756,166.672023 L623.155756,166.672023 L626.995756,154.192023 L629.683756,144.336023 L632.371756,154.128023 L636.211756,166.672023 Z" transform="rotate(-15 629.684 161.36)"/><rect width="68" height="92" x="672.828" y="93.008" fill="#FFF" stroke="#000" stroke-width="4" rx="8" transform="rotate(-15 706.828 139.008)"/><polygon fill="#000" fill-rule="nonzero" points="721.486 162.99 721.486 157.23 710.35 157.23 710.35 124.078 721.486 124.078 721.486 118.318 692.366 118.318 692.366 124.078 703.566 124.078 703.566 157.23 692.366 157.23 692.366 162.99" transform="rotate(-15 706.926 140.654)"/><rect width="68" height="92" x="750.102" y="72.302" fill="#FFF" stroke="#000" stroke-width="4" rx="8" transform="rotate(-15 784.102 118.302)"/><polygon fill="#000" fill-rule="nonzero" points="776.168 142.285 794.792 106.445 794.28 120.269 794.28 142.285 800.808 142.285 800.808 97.613 792.424 97.613 773.672 133.069 774.248 119.693 774.248 97.613 767.72 97.613 767.72 142.285" transform="rotate(-15 784.264 119.949)"/><rect width="68" height="92" x="827.377" y="51.596" fill="#FFF" stroke="#000" stroke-width="4" rx="8" transform="rotate(-15 861.377 97.596)"/><path fill="#000" fill-rule="nonzero" d="M858.881955,121.579452 C862.124621,121.579452 865.047288,121.056785 867.649955,120.011452 C870.252621,118.966119 872.471288,117.451452 874.305955,115.467452 C876.140621,113.483452 877.548621,111.115452 878.529955,108.363452 C879.511288,105.611452 880.001955,102.528785 880.001955,99.1154521 C880.001955,95.7447854 879.511288,92.6941188 878.529955,89.9634521 C877.548621,87.2327854 876.140621,84.8967854 874.305955,82.9554521 C872.471288,81.0141188 870.252621,79.5207854 867.649955,78.4754521 C865.047288,77.4301188 862.124621,76.9074521 858.881955,76.9074521 L858.881955,76.9074521 L845.121955,76.9074521 L845.121955,121.579452 L858.881955,121.579452 Z M858.881955,115.819452 L851.905955,115.819452 L851.905955,82.6674521 L858.881955,82.6674521 C861.783288,82.6674521 864.279288,83.3394521 866.369955,84.6834521 C868.460621,86.0274521 870.071288,87.9261188 871.201955,90.3794521 C872.332621,92.8327854 872.897955,95.7447854 872.897955,99.1154521 C872.897955,102.443452 872.332621,105.366119 871.201955,107.883452 C870.071288,110.400785 868.460621,112.352785 866.369955,113.739452 C864.279288,115.126119 861.783288,115.819452 858.881955,115.819452 L858.881955,115.819452 Z" transform="rotate(-15 862.562 99.243)"/><rect width="68" height="92" x="545.197" y="234.875" fill="#FFF" stroke="#000" stroke-width="4" rx="8" transform="rotate(-15 579.197 280.875)"/><polygon fill="#000" fill-rule="nonzero" points="596.159 304.858 596.159 299.098 570.623 299.098 570.623 284.57 588.031 284.57 588.031 278.81 570.623 278.81 570.623 265.946 595.903 265.946 595.903 260.186 563.839 260.186 563.839 304.858" transform="rotate(-15 579.999 282.522)"/><rect width="68" height="92" x="622.472" y="214.169" fill="#FFF" stroke="#000" stroke-width="4" rx="8" transform="rotate(-15 656.472 260.17)"/><path fill="#000" fill-rule="nonzero" d="M656.664937,284.920309 C660.163604,284.920309 663.203604,284.226976 665.784937,282.840309 C668.36627,281.453642 670.38227,279.512309 671.832937,277.016309 C673.283604,274.520309 674.008937,271.608309 674.008937,268.280309 L674.008937,268.280309 L674.008937,239.480309 L667.160937,239.480309 L667.160937,268.280309 C667.160937,270.456309 666.723604,272.354976 665.848937,273.976309 C664.97427,275.597642 663.75827,276.856309 662.200937,277.752309 C660.643604,278.648309 658.79827,279.096309 656.664937,279.096309 C654.531604,279.096309 652.675604,278.648309 651.096937,277.752309 C649.51827,276.856309 648.291604,275.597642 647.416937,273.976309 C646.54227,272.354976 646.104937,270.456309 646.104937,268.280309 L646.104937,268.280309 L646.104937,239.480309 L639.256937,239.480309 L639.256937,268.280309 C639.256937,271.608309 639.98227,274.520309 641.432937,277.016309 C642.883604,279.512309 644.91027,281.453642 647.512937,282.840309 C650.115604,284.226976 653.16627,284.920309 656.664937,284.920309 Z" transform="rotate(-15 656.633 262.2)"/><rect width="68" height="92" x="699.746" y="193.464" fill="#FFF" stroke="#000" stroke-width="4" rx="8" transform="rotate(-15 733.746 239.464)"/><polygon fill="#000" fill-rule="nonzero" points="750.323 263.447 750.323 249.751 743.539 249.751 743.539 257.687 726.899 257.687 726.899 218.775 720.115 218.775 720.115 263.447" transform="rotate(-15 735.219 241.11)"/><rect width="68" height="92" x="777.02" y="172.758" fill="#FFF" stroke="#000" stroke-width="4" rx="8" transform="rotate(-15 811.02 218.758)"/><path fill="#000" fill-rule="nonzero" d="M803.405069,243.509262 L804.076069,242.129262 L804.441479,242.272697 C806.466787,243.042115 808.73533,243.452471 811.247108,243.503766 L811.789069,243.509262 C814.861069,243.509262 817.613069,242.975928 820.045069,241.909262 C822.477069,240.842595 824.397069,239.338595 825.805069,237.397262 C827.213069,235.455928 827.917069,233.162595 827.917069,230.517262 C827.917069,228.042595 827.458402,226.005262 826.541069,224.405262 C825.623736,222.805262 824.407736,221.525262 822.893069,220.565262 C821.378402,219.605262 819.725069,218.837262 817.933069,218.261262 C817.574669,218.146062 817.215842,218.033422 816.856589,217.923342 L815.972069,217.659262 L820.242069,208.875262 L820.289549,209.024213 C820.461922,209.615288 820.567736,210.245617 820.606989,210.915199 L820.621069,211.253262 L827.405069,211.253262 C827.362402,208.351928 826.605069,205.866595 825.133069,203.797262 C824.700128,203.188634 824.225664,202.620607 823.709678,202.093179 L823.595069,201.980262 L825.869069,197.301262 L819.149069,197.301262 L818.490069,198.657262 L818.405429,198.621677 C816.340599,197.800085 814.058744,197.361903 811.559865,197.30713 L811.021069,197.301262 C807.863736,197.301262 805.122402,197.845262 802.797069,198.933262 C800.471736,200.021262 798.658402,201.514595 797.357069,203.413262 C796.055736,205.311928 795.405069,207.477262 795.405069,209.909262 C795.405069,212.213262 795.863736,214.111928 796.781069,215.605262 C797.698402,217.098595 798.914402,218.293262 800.429069,219.189262 C801.943736,220.085262 803.607736,220.821262 805.421069,221.397262 C805.783736,221.512462 806.145976,221.625528 806.507789,221.736462 L807.172069,221.937262 L802.298069,231.964262 L802.218986,231.761096 C801.725038,230.442532 801.460422,228.923968 801.42514,227.205404 L801.421069,226.805262 L794.701069,226.805262 C794.701069,230.346595 795.405069,233.354595 796.813069,235.829262 C797.405911,236.871227 798.10087,237.811075 798.897944,238.648807 L798.998069,238.752262 L796.685069,243.509262 L803.405069,243.509262 Z M810.032069,216.054262 L809.917069,216.021262 C809.085069,215.775928 808.290402,215.519928 807.533069,215.253262 C806.018402,214.719928 804.802402,214.026595 803.885069,213.173262 C802.967736,212.319928 802.509069,211.167928 802.509069,209.717262 C802.509069,207.669262 803.298402,206.047928 804.877069,204.853262 C806.455736,203.658595 808.503736,203.061262 811.021069,203.061262 C812.770402,203.061262 814.359736,203.391928 815.789069,204.053262 L815.789069,204.053262 L815.852069,204.084262 L810.032069,216.054262 Z M811.725069,237.749262 C809.933069,237.749262 808.355153,237.451551 806.991322,236.856129 L806.703069,236.725262 L813.078069,223.612262 L813.413069,223.717262 C814.033069,223.917262 814.633569,224.126262 815.214569,224.344262 L815.789069,224.565262 C817.303736,225.162595 818.519736,225.930595 819.437069,226.869262 C820.354402,227.807928 820.813069,229.045262 820.813069,230.581262 C820.813069,232.842595 819.981069,234.602595 818.317069,235.861262 C816.653069,237.119928 814.455736,237.749262 811.725069,237.749262 Z" transform="rotate(-15 811.31 220.405)"/><rect width="68" height="92" x="854.294" y="152.053" fill="#FFF" stroke="#000" stroke-width="4" rx="8" transform="rotate(-15 888.294 198.053)"/><polygon fill="#000" fill-rule="nonzero" points="905.255 222.036 905.255 216.276 879.719 216.276 879.719 183.124 904.999 183.124 904.999 177.364 872.935 177.364 872.935 222.036" transform="rotate(-15 889.095 199.7)"/><path fill="#FFF" stroke="#000" stroke-width="4" d="M491.260344,148.305435 C492.68489,148.22165 494.038652,148.65646 495.127425,149.45471 C496.215021,150.252098 497.039494,151.412132 497.407746,152.786467 L497.407746,152.786467 L545.426947,331.996564 C545.855772,333.596962 545.595311,335.219667 544.827544,336.549478 C544.059777,337.879289 542.784705,338.916207 541.184306,339.345033 L541.184306,339.345033 L483.517956,354.796685 C481.137526,355.434519 478.630913,355.4327 476.251651,354.792009 L476.251651,354.792009 L418.599711,339.25565 C417.001536,338.824979 415.728742,337.78781 414.962591,336.458611 C414.196439,335.129412 413.93693,333.508185 414.365292,331.909516 L414.365292,331.909516 L462.384808,152.742194 C462.721631,151.485152 463.444475,150.408369 464.40804,149.62932 C465.359945,148.859698 466.546781,148.380648 467.828458,148.305435 L467.828458,148.305435 Z"/><polygon fill="#000" fill-rule="nonzero" points="476.597 309.563 498.997 264.891 491.765 264.891 479.861 289.467 468.725 264.891 461.109 264.891 476.341 296.379 469.365 309.563"/></g></svg>